<svg width="300" height="33" viewBox="0 0 300 33" fill="none" xmlns="http://www.w3.org/2000/svg">
<path d="M4.44801 24.672C3.63734 24.672 2.89067 24.4693 2.20801 24.064C1.54667 23.6587 1.01334 23.1253 0.608008 22.464C0.202675 21.7813 7.86781e-06 21.0347 7.86781e-06 20.224V6.08C7.86781e-06 5.26933 0.202675 4.53333 0.608008 3.872C1.01334 3.18933 1.54667 2.64533 2.20801 2.24C2.89067 1.83466 3.63734 1.632 4.44801 1.632H22.976V5.888H5.34401C5.00267 5.888 4.72534 5.984 4.51201 6.176C4.32001 6.368 4.22401 6.64533 4.22401 7.008V19.296C4.22401 19.6373 4.32001 19.9147 4.51201 20.128C4.72534 20.32 5.00267 20.416 5.34401 20.416H22.976V24.672H4.44801ZM32.8725 24.672C32.0618 24.672 31.3152 24.4693 30.6325 24.064C29.9712 23.6587 29.4378 23.1253 29.0325 22.464C28.6485 21.8027 28.4565 21.0667 28.4565 20.256V6.112H32.6485V20.096C32.6485 20.2027 32.6805 20.2987 32.7445 20.384C32.8298 20.448 32.9258 20.48 33.0325 20.48H42.7285C42.8352 20.48 42.9205 20.448 42.9845 20.384C43.0698 20.2987 43.1125 20.2027 43.1125 20.096V6.112H47.3045V20.256C47.3045 21.0667 47.1018 21.8027 46.6965 22.464C46.3125 23.1253 45.7898 23.6587 45.1285 24.064C44.4672 24.4693 43.7205 24.672 42.8885 24.672H32.8725ZM52.9145 24.672V10.528C52.9145 9.71733 53.1172 8.98133 53.5225 8.32C53.9278 7.65866 54.4612 7.12533 55.1225 6.72C55.8052 6.31466 56.5412 6.112 57.3305 6.112H67.6345V10.304H57.4905C57.3838 10.304 57.2878 10.3467 57.2025 10.432C57.1385 10.496 57.1065 10.5813 57.1065 10.688V24.672H52.9145ZM71.8733 24.672V10.528C71.8733 9.71733 72.0759 8.98133 72.4813 8.32C72.8866 7.65866 73.4199 7.12533 74.0813 6.72C74.7639 6.31466 75.4999 6.112 76.2893 6.112H86.5933V10.304H76.4493C76.3426 10.304 76.2466 10.3467 76.1613 10.432C76.0973 10.496 76.0653 10.5813 76.0653 10.688V24.672H71.8733ZM95.4348 24.672C94.6241 24.672 93.8881 24.4693 93.2268 24.064C92.5654 23.6587 92.0321 23.1253 91.6268 22.464C91.2214 21.8027 91.0188 21.0667 91.0188 20.256V10.528C91.0188 9.71733 91.2214 8.98133 91.6268 8.32C92.0321 7.65866 92.5654 7.12533 93.2268 6.72C93.8881 6.31466 94.6241 6.112 95.4348 6.112H105.451C106.261 6.112 106.997 6.31466 107.659 6.72C108.341 7.12533 108.875 7.65866 109.259 8.32C109.664 8.98133 109.867 9.71733 109.867 10.528V17.504H95.2108V20.096C95.2108 20.2027 95.2428 20.2987 95.3068 20.384C95.3921 20.448 95.4881 20.48 95.5948 20.48H109.867V24.672H95.4348ZM95.2108 13.728H105.675V10.688C105.675 10.5813 105.632 10.496 105.547 10.432C105.483 10.3467 105.397 10.304 105.291 10.304H95.5948C95.4881 10.304 95.3921 10.3467 95.3068 10.432C95.2428 10.496 95.2108 10.5813 95.2108 10.688V13.728ZM115.511 24.672V6.112H129.943C130.754 6.112 131.49 6.31466 132.151 6.72C132.834 7.12533 133.367 7.65866 133.751 8.32C134.156 8.98133 134.359 9.71733 134.359 10.528V24.672H130.167V10.688C130.167 10.5813 130.124 10.496 130.039 10.432C129.975 10.3467 129.89 10.304 129.783 10.304H120.087C119.98 10.304 119.884 10.3467 119.799 10.432C119.735 10.496 119.703 10.5813 119.703 10.688V24.672H115.511ZM144.416 24.672C143.606 24.672 142.87 24.4693 142.208 24.064C141.547 23.6587 141.014 23.1253 140.608 22.464C140.203 21.8027 140 21.0667 140 20.256V0.415997H144.192V6.112H151.424V10.304H144.192V20.096C144.192 20.2027 144.224 20.2987 144.288 20.384C144.374 20.448 144.47 20.48 144.576 20.48H151.424V24.672H144.416ZM168.325 32.032V6.112H182.757C183.567 6.112 184.303 6.31466 184.965 6.72C185.647 7.12533 186.181 7.65866 186.565 8.32C186.97 8.98133 187.173 9.71733 187.173 10.528V20.256C187.173 21.0667 186.97 21.8027 186.565 22.464C186.181 23.1253 185.647 23.6587 184.965 24.064C184.303 24.4693 183.567 24.672 182.757 24.672H172.517V32.032H168.325ZM172.901 20.48H182.597C182.703 20.48 182.789 20.448 182.853 20.384C182.938 20.2987 182.981 20.2027 182.981 20.096V10.688C182.981 10.5813 182.938 10.496 182.853 10.432C182.789 10.3467 182.703 10.304 182.597 10.304H172.901C172.794 10.304 172.698 10.3467 172.613 10.432C172.549 10.496 172.517 10.5813 172.517 10.688V20.096C172.517 20.2027 172.549 20.2987 172.613 20.384C172.698 20.448 172.794 20.48 172.901 20.48ZM196.167 24.672C195.356 24.672 194.62 24.4693 193.959 24.064C193.297 23.6587 192.764 23.1253 192.359 22.464C191.953 21.8027 191.751 21.0667 191.751 20.256V-3.8147e-06H195.975V20.096C195.975 20.2027 196.007 20.2987 196.071 20.384C196.156 20.448 196.252 20.48 196.359 20.48H199.911V24.672H196.167ZM209.001 24.672C208.19 24.672 207.443 24.4693 206.761 24.064C206.099 23.6587 205.566 23.1253 205.161 22.464C204.777 21.8027 204.585 21.0667 204.585 20.256V13.28H219.241V10.688C219.241 10.5813 219.198 10.496 219.113 10.432C219.049 10.3467 218.963 10.304 218.857 10.304H204.585V6.112H219.017C219.827 6.112 220.563 6.31466 221.225 6.72C221.907 7.12533 222.441 7.65866 222.825 8.32C223.23 8.98133 223.433 9.71733 223.433 10.528V24.672H209.001ZM209.161 20.48H219.241V17.056H208.777V20.096C208.777 20.2027 208.809 20.2987 208.873 20.384C208.958 20.448 209.054 20.48 209.161 20.48ZM231.827 31.552V27.328H242.995C243.102 27.328 243.187 27.2853 243.251 27.2C243.337 27.136 243.379 27.0507 243.379 26.944V24.672H233.139C232.35 24.672 231.614 24.4693 230.931 24.064C230.27 23.6587 229.737 23.1253 229.331 22.464C228.926 21.8027 228.723 21.0667 228.723 20.256V6.176H232.915V20.096C232.915 20.2027 232.947 20.2987 233.011 20.384C233.097 20.448 233.193 20.48 233.299 20.48H242.995C243.102 20.48 243.187 20.448 243.251 20.384C243.337 20.2987 243.379 20.2027 243.379 20.096V6.176H247.571V27.136C247.571 27.9467 247.379 28.6827 246.995 29.344C246.611 30.0267 246.078 30.56 245.395 30.944C244.734 31.3493 243.998 31.552 243.187 31.552H231.827ZM256.824 24.672C256.013 24.672 255.277 24.4693 254.616 24.064C253.954 23.6587 253.421 23.1253 253.016 22.464C252.61 21.8027 252.408 21.0667 252.408 20.256V10.528C252.408 9.71733 252.61 8.98133 253.016 8.32C253.421 7.65866 253.954 7.12533 254.616 6.72C255.277 6.31466 256.013 6.112 256.824 6.112H266.84C267.65 6.112 268.386 6.31466 269.048 6.72C269.73 7.12533 270.264 7.65866 270.648 8.32C271.053 8.98133 271.256 9.71733 271.256 10.528V17.504H256.6V20.096C256.6 20.2027 256.632 20.2987 256.696 20.384C256.781 20.448 256.877 20.48 256.984 20.48H271.256V24.672H256.824ZM256.6 13.728H267.064V10.688C267.064 10.5813 267.021 10.496 266.936 10.432C266.872 10.3467 266.786 10.304 266.68 10.304H256.984C256.877 10.304 256.781 10.3467 256.696 10.432C256.632 10.496 256.6 10.5813 256.6 10.688V13.728ZM276.648 24.672V10.528C276.648 9.71733 276.851 8.98133 277.256 8.32C277.662 7.65866 278.195 7.12533 278.856 6.72C279.539 6.31466 280.275 6.112 281.064 6.112H291.368V10.304H281.224C281.118 10.304 281.022 10.3467 280.936 10.432C280.872 10.496 280.84 10.5813 280.84 10.688V24.672H276.648ZM295.671 10.24V6.048H299.863V10.24H295.671ZM295.671 24.672V20.48H299.863V24.672H295.671Z" fill="white"/>
</svg>
