<svg width="423" height="37" viewBox="0 0 423 37" fill="none" xmlns="http://www.w3.org/2000/svg">
<path d="M4.47035e-08 36C0.28 36 0.56 35.72 0.84 35.16C1.12 34.6 1.26 33.68 1.26 32.4V3.6C1.26 2.32 1.12 1.42 0.84 0.899998C0.56 0.339998 0.28 0.0399981 4.47035e-08 -1.43051e-06H22.44C25.56 -1.43051e-06 28 0.359999 29.76 1.08C31.52 1.8 32.76 2.84 33.48 4.2C34.2 5.52 34.56 7.08 34.56 8.88C34.56 10.32 34.3 11.54 33.78 12.54C33.3 13.5 32.68 14.26 31.92 14.82C31.16 15.38 30.4 15.8 29.64 16.08V16.2C32.24 16.8 34.2 17.88 35.52 19.44C36.84 20.96 37.5 23 37.5 25.56C37.5 27.28 37.16 28.94 36.48 30.54C35.8 32.14 34.54 33.46 32.7 34.5C30.9 35.5 28.28 36 24.84 36H4.47035e-08ZM12.9 29.34H21.9C24.18 29.34 25.8 29.02 26.76 28.38C27.76 27.7 28.26 26.62 28.26 25.14C28.26 23.74 27.72 22.66 26.64 21.9C25.56 21.1 23.78 20.7 21.3 20.7H12.96C11.76 20.7 11.04 20.78 10.8 20.94C10.6 21.1 10.5 21.64 10.5 22.56V27.54C10.5 28.42 10.6 28.94 10.8 29.1C11.04 29.26 11.74 29.34 12.9 29.34ZM12.96 14.58H20.04C21.96 14.58 23.32 14.26 24.12 13.62C24.96 12.94 25.38 11.94 25.38 10.62C25.38 9.3 24.98 8.32 24.18 7.68C23.42 7.04 22.06 6.72 20.1 6.72H12.9C11.7 6.72 11 6.8 10.8 6.96C10.6 7.08 10.5 7.6 10.5 8.52V12.78C10.5 13.66 10.6 14.18 10.8 14.34C11.04 14.5 11.76 14.58 12.96 14.58ZM42.3047 36C42.5847 36 42.8647 35.72 43.1447 35.16C43.4247 34.6 43.5647 33.68 43.5647 32.4V3.6C43.5647 2.32 43.4247 1.42 43.1447 0.899998C42.8647 0.339998 42.5847 0.0399981 42.3047 -1.43051e-06H54.0647C53.7847 -1.43051e-06 53.5047 0.279999 53.2247 0.839998C52.9447 1.4 52.8047 2.34 52.8047 3.66V27.48C52.8047 28.36 52.9047 28.9 53.1047 29.1C53.3447 29.26 54.0647 29.34 55.2647 29.34H69.7247C72.0447 29.34 73.9047 29.08 75.3047 28.56C76.7447 28 77.6847 27.46 78.1247 26.94L76.3247 34.14V36H42.3047ZM100.518 36.6C96.4783 36.6 93.1583 35.96 90.5583 34.68C87.9583 33.4 86.0383 31.56 84.7983 29.16C83.5583 26.72 82.9383 23.82 82.9383 20.46V3.54C82.9383 2.26 82.7983 1.36 82.5183 0.839998C82.2783 0.279999 82.0183 -1.43051e-06 81.7383 -1.43051e-06H93.2583C92.9783 0.0399981 92.6983 0.319998 92.4183 0.839998C92.1783 1.36 92.0583 2.26 92.0583 3.54V20.34C92.0583 22.9 92.4183 24.88 93.1383 26.28C93.8583 27.68 94.8583 28.64 96.1383 29.16C97.4183 29.68 98.8983 29.94 100.578 29.94H101.238C102.558 29.94 103.718 29.8 104.718 29.52C105.758 29.24 106.618 28.76 107.298 28.08C108.018 27.4 108.558 26.44 108.918 25.2C109.318 23.92 109.518 22.3 109.518 20.34V3.54C109.518 2.26 109.378 1.36 109.098 0.839998C108.858 0.279999 108.598 -1.43051e-06 108.318 -1.43051e-06H119.838C119.558 0.0399981 119.278 0.339998 118.998 0.899998C118.758 1.42 118.638 2.32 118.638 3.6V20.46C118.638 23.82 117.998 26.72 116.718 29.16C115.478 31.56 113.558 33.4 110.958 34.68C108.398 35.96 105.118 36.6 101.118 36.6H100.518ZM125.859 36C126.139 36 126.419 35.72 126.699 35.16C126.979 34.6 127.119 33.68 127.119 32.4V3.6C127.119 2.32 126.979 1.42 126.699 0.899998C126.419 0.339998 126.139 0.0399981 125.859 -1.43051e-06H160.899V1.8L162.099 8.76C161.099 8.32 159.339 7.86 156.819 7.38C154.299 6.86 151.259 6.6 147.699 6.6H138.819C137.619 6.6 136.899 6.7 136.659 6.9C136.459 7.06 136.359 7.56 136.359 8.4V12.84C136.359 13.72 136.459 14.24 136.659 14.4C136.899 14.56 137.599 14.64 138.759 14.64H147.399C149.719 14.64 151.579 14.52 152.979 14.28C154.419 14 155.359 13.72 155.799 13.44C155.639 14.2 155.459 15.08 155.259 16.08C155.059 17.08 154.899 18.04 154.779 18.96C154.659 19.88 154.599 20.64 154.599 21.24H138.759C137.599 21.24 136.899 21.32 136.659 21.48C136.459 21.6 136.359 22.12 136.359 23.04V27.48C136.359 28.4 136.459 28.94 136.659 29.1C136.859 29.26 137.559 29.34 138.759 29.34H154.959C157.279 29.34 159.139 29.08 160.539 28.56C161.979 28 162.919 27.46 163.359 26.94L162.159 34.14V36H125.859ZM182.052 36C182.332 36 182.592 35.72 182.832 35.16C183.112 34.6 183.252 33.68 183.252 32.4V3.6C183.252 2.32 183.112 1.42 182.832 0.899998C182.552 0.339998 182.272 0.0399981 181.992 -1.43051e-06H201.672C205.072 -1.43051e-06 207.812 0.499998 209.892 1.5C212.012 2.46 213.572 3.86 214.572 5.7C215.572 7.5 216.072 9.66 216.072 12.18C216.072 14.74 215.572 16.96 214.572 18.84C213.572 20.68 212.012 22.1 209.892 23.1C207.812 24.06 205.072 24.54 201.672 24.54H192.492V32.4C192.492 33.68 192.632 34.6 192.912 35.16C193.192 35.72 193.472 36 193.752 36H182.052ZM194.952 17.94H197.952C200.312 17.94 202.132 17.74 203.412 17.34C204.732 16.94 205.652 16.32 206.172 15.48C206.692 14.64 206.952 13.54 206.952 12.18C206.952 10.86 206.672 9.8 206.112 9C205.592 8.2 204.712 7.64 203.472 7.32C202.272 6.96 200.632 6.78 198.552 6.78H194.952C193.712 6.78 192.992 6.86 192.792 7.02C192.592 7.14 192.492 7.6 192.492 8.4V16.26C192.492 17.06 192.592 17.54 192.792 17.7C192.992 17.86 193.712 17.94 194.952 17.94ZM221.191 36C221.471 36 221.751 35.72 222.031 35.16C222.311 34.6 222.451 33.68 222.451 32.4V3.6C222.451 2.32 222.311 1.42 222.031 0.899998C221.751 0.339998 221.471 0.0399981 221.191 -1.43051e-06H232.951C232.671 -1.43051e-06 232.391 0.279999 232.111 0.839998C231.831 1.4 231.691 2.34 231.691 3.66V27.48C231.691 28.36 231.791 28.9 231.991 29.1C232.231 29.26 232.951 29.34 234.151 29.34H248.611C250.931 29.34 252.791 29.08 254.191 28.56C255.631 28 256.571 27.46 257.011 26.94L255.211 34.14V36H221.191ZM257.505 36C257.705 36 258.005 35.72 258.405 35.16C258.845 34.6 259.345 33.66 259.905 32.34C260.185 31.74 260.625 30.72 261.225 29.28C261.865 27.8 262.585 26.1 263.385 24.18C264.225 22.22 265.085 20.18 265.965 18.06C266.885 15.94 267.745 13.9 268.545 11.94C269.385 9.98 270.105 8.26 270.705 6.78C271.345 5.3 271.785 4.24 272.025 3.6C272.545 2.32 272.825 1.4 272.865 0.839998C272.905 0.279999 272.825 -1.43051e-06 272.625 -1.43051e-06H285.705C285.545 -1.43051e-06 285.485 0.279999 285.525 0.839998C285.565 1.36 285.845 2.28 286.365 3.6C286.605 4.24 287.025 5.3 287.625 6.78C288.225 8.22 288.925 9.92 289.725 11.88C290.525 13.8 291.365 15.82 292.245 17.94C293.125 20.06 293.965 22.1 294.765 24.06C295.565 25.98 296.285 27.68 296.925 29.16C297.565 30.64 298.025 31.7 298.305 32.34C298.905 33.66 299.485 34.6 300.045 35.16C300.605 35.72 301.025 36 301.305 36H287.685C288.005 35.96 288.265 35.66 288.465 35.1C288.705 34.5 288.705 33.58 288.465 32.34C288.425 32.06 288.385 31.84 288.345 31.68C288.305 31.48 288.225 31.2 288.105 30.84C287.945 30.24 287.765 29.82 287.565 29.58C287.365 29.3 287.025 29.14 286.545 29.1C286.105 29.06 285.365 29.04 284.325 29.04H274.005C272.925 29.04 272.125 29.08 271.605 29.16C271.085 29.2 270.725 29.34 270.525 29.58C270.325 29.82 270.165 30.22 270.045 30.78C270.005 30.98 269.945 31.24 269.865 31.56C269.825 31.88 269.785 32.14 269.745 32.34C269.465 33.62 269.385 34.54 269.505 35.1C269.665 35.66 269.865 35.96 270.105 36H257.505ZM275.565 22.44H282.585C283.745 22.44 284.385 22.34 284.505 22.14C284.625 21.94 284.565 21.5 284.325 20.82C283.805 19.54 283.285 18.24 282.765 16.92C282.245 15.56 281.745 14.24 281.265 12.96C280.825 11.68 280.425 10.5 280.065 9.42C279.745 8.3 279.465 7.36 279.225 6.6H279.105C278.545 8.08 277.965 9.64 277.365 11.28C276.765 12.92 276.205 14.44 275.685 15.84C275.165 17.24 274.745 18.4 274.425 19.32C274.105 20.2 273.945 20.64 273.945 20.64C273.665 21.28 273.565 21.74 273.645 22.02C273.725 22.3 274.365 22.44 275.565 22.44ZM309.274 36C309.594 36 309.934 35.74 310.294 35.22C310.654 34.66 310.834 33.72 310.834 32.4L310.774 20.04C309.654 18.64 308.434 17.14 307.114 15.54C305.794 13.94 304.494 12.36 303.214 10.8C301.934 9.24 300.774 7.84 299.734 6.6C298.734 5.32 297.954 4.36 297.394 3.72C296.274 2.36 295.334 1.4 294.574 0.839998C293.854 0.279999 293.354 -1.43051e-06 293.074 -1.43051e-06H307.234C306.954 0.0399981 306.854 0.339998 306.934 0.899998C307.014 1.46 307.514 2.4 308.434 3.72C308.874 4.32 309.374 5.06 309.934 5.94C310.534 6.78 311.154 7.7 311.794 8.7C312.434 9.7 313.054 10.68 313.654 11.64C314.294 12.6 314.874 13.48 315.394 14.28H315.454C316.054 13.4 316.654 12.52 317.254 11.64C317.854 10.72 318.454 9.82 319.054 8.94C319.654 8.06 320.254 7.18 320.854 6.3C321.454 5.38 322.054 4.48 322.654 3.6C323.574 2.24 324.074 1.3 324.154 0.779999C324.234 0.259999 324.134 -1.43051e-06 323.854 -1.43051e-06H337.654C337.414 0.0399981 336.954 0.319998 336.274 0.839998C335.594 1.36 334.714 2.26 333.634 3.54C333.034 4.22 332.194 5.2 331.114 6.48C330.074 7.72 328.914 9.14 327.634 10.74C326.354 12.3 325.034 13.9 323.674 15.54C322.354 17.14 321.134 18.64 320.014 20.04V32.4C320.014 33.72 320.134 34.66 320.374 35.22C320.654 35.74 320.934 36 321.214 36H309.274ZM340.664 36C340.944 36 341.224 35.72 341.504 35.16C341.784 34.6 341.924 33.68 341.924 32.4V3.6C341.924 2.32 341.784 1.42 341.504 0.899998C341.224 0.339998 340.944 0.0399981 340.664 -1.43051e-06H375.704V1.8L376.904 8.76C375.904 8.32 374.144 7.86 371.624 7.38C369.104 6.86 366.064 6.6 362.504 6.6H353.624C352.424 6.6 351.704 6.7 351.464 6.9C351.264 7.06 351.164 7.56 351.164 8.4V12.84C351.164 13.72 351.264 14.24 351.464 14.4C351.704 14.56 352.404 14.64 353.564 14.64H362.204C364.524 14.64 366.384 14.52 367.784 14.28C369.224 14 370.164 13.72 370.604 13.44C370.444 14.2 370.264 15.08 370.064 16.08C369.864 17.08 369.704 18.04 369.584 18.96C369.464 19.88 369.404 20.64 369.404 21.24H353.564C352.404 21.24 351.704 21.32 351.464 21.48C351.264 21.6 351.164 22.12 351.164 23.04V27.48C351.164 28.4 351.264 28.94 351.464 29.1C351.664 29.26 352.364 29.34 353.564 29.34H369.764C372.084 29.34 373.944 29.08 375.344 28.56C376.784 28 377.724 27.46 378.164 26.94L376.964 34.14V36H340.664ZM382.443 36C382.723 36 382.983 35.72 383.223 35.16C383.503 34.6 383.643 33.68 383.643 32.4V3.6C383.643 2.32 383.503 1.42 383.223 0.899998C382.943 0.339998 382.663 0.0399981 382.383 -1.43051e-06H402.063C405.583 -1.43051e-06 408.383 0.439999 410.463 1.32C412.583 2.2 414.103 3.5 415.023 5.22C415.983 6.9 416.463 9 416.463 11.52C416.463 13.32 416.123 14.92 415.443 16.32C414.803 17.72 413.903 18.86 412.743 19.74C411.583 20.62 410.283 21.26 408.843 21.66V21.84C410.443 22.48 412.123 23.74 413.883 25.62C415.643 27.46 417.223 29.52 418.623 31.8C419.543 33.28 420.383 34.34 421.143 34.98C421.903 35.62 422.483 35.96 422.883 36H407.763C408.243 35.96 408.623 35.7 408.903 35.22C409.223 34.7 409.123 33.86 408.603 32.7C407.763 30.78 406.743 29.12 405.543 27.72C404.343 26.32 402.943 25.26 401.343 24.54C399.783 23.78 397.983 23.4 395.943 23.4H395.283C394.043 23.4 393.323 23.5 393.123 23.7C392.923 23.9 392.823 24.4 392.823 25.2V32.4C392.823 33.68 392.963 34.6 393.243 35.16C393.523 35.72 393.803 36 394.083 36H382.443ZM395.283 17.34H400.203C402.723 17.34 404.543 16.9 405.663 16.02C406.783 15.1 407.343 13.6 407.343 11.52C407.343 10.6 407.143 9.78 406.743 9.06C406.343 8.34 405.663 7.78 404.703 7.38C403.783 6.98 402.483 6.78 400.803 6.78H395.283C394.043 6.78 393.323 6.84 393.123 6.96C392.923 7.08 392.823 7.54 392.823 8.34V15.72C392.823 16.52 392.923 17 393.123 17.16C393.323 17.28 394.043 17.34 395.283 17.34Z" fill="#2BB1FF"/>
</svg>
