<svg width="432" height="93" viewBox="0 0 432 93" fill="none" xmlns="http://www.w3.org/2000/svg">
<g filter="url(#filter0_d_12246_4038)">
<path d="M15 84.8C15.5973 84.8 16.1947 84.2027 16.792 83.008C17.3893 81.8133 17.688 79.8507 17.688 77.12V15.68C17.688 12.9493 17.3893 11.0293 16.792 9.92C16.1947 8.72533 15.5973 8.08533 15 8H55.192C62.7013 8 69.016 8.72533 74.136 10.176C79.256 11.6267 83.352 13.632 86.424 16.192C89.5813 18.752 91.9707 21.696 93.592 25.024C95.2133 28.2667 96.28 31.7227 96.792 35.392C97.3893 39.0613 97.688 42.7733 97.688 46.528C97.688 49.9413 97.3893 53.4827 96.792 57.152C96.28 60.736 95.1707 64.192 93.464 67.52C91.8427 70.7627 89.4533 73.7067 86.296 76.352C83.224 78.912 79.128 80.96 74.008 82.496C68.9733 84.032 62.7013 84.8 55.192 84.8H15ZM42.52 70.592H47.768C55.1067 70.592 60.9947 69.9947 65.432 68.8C69.8693 67.52 73.112 65.216 75.16 61.888C77.208 58.56 78.232 53.7387 78.232 47.424V45.12C78.232 38.464 77.2933 33.5573 75.416 30.4C73.5387 27.1573 70.3813 25.024 65.944 24C61.5067 22.976 55.448 22.464 47.768 22.464H42.52C40.0453 22.464 38.552 22.6347 38.04 22.976C37.6133 23.232 37.4 24.256 37.4 26.048V66.752C37.4 68.6293 37.6133 69.7387 38.04 70.08C38.552 70.4213 40.0453 70.592 42.52 70.592Z" fill="#4DD5BC"/>
<path d="M109.378 84.8C109.975 84.8 110.53 84.2027 111.042 83.008C111.639 81.8133 111.938 79.8507 111.938 77.12V15.68C111.938 12.9493 111.639 11.0293 111.042 9.92C110.445 8.72533 109.847 8.08533 109.25 8H151.234C158.743 8 164.717 8.93867 169.154 10.816C173.677 12.6933 176.919 15.4667 178.882 19.136C180.93 22.72 181.954 27.2 181.954 32.576C181.954 36.416 181.229 39.8293 179.778 42.816C178.413 45.8027 176.493 48.2347 174.018 50.112C171.543 51.9893 168.77 53.3547 165.698 54.208V54.592C169.111 55.9573 172.695 58.6453 176.45 62.656C180.205 66.5813 183.575 70.976 186.562 75.84C188.525 78.9973 190.317 81.2587 191.938 82.624C193.559 83.9893 194.797 84.7147 195.65 84.8H163.394C164.418 84.7147 165.229 84.16 165.826 83.136C166.509 82.0267 166.295 80.2347 165.186 77.76C163.394 73.664 161.218 70.1227 158.658 67.136C156.098 64.1493 153.111 61.888 149.698 60.352C146.37 58.7307 142.53 57.92 138.178 57.92H136.77C134.125 57.92 132.589 58.1333 132.162 58.56C131.735 58.9867 131.522 60.0533 131.522 61.76V77.12C131.522 79.8507 131.821 81.8133 132.418 83.008C133.015 84.2027 133.613 84.8 134.21 84.8H109.378ZM136.77 44.992H147.266C152.642 44.992 156.525 44.0533 158.914 42.176C161.303 40.2133 162.498 37.0133 162.498 32.576C162.498 30.6133 162.071 28.864 161.218 27.328C160.365 25.792 158.914 24.5973 156.866 23.744C154.903 22.8907 152.13 22.464 148.546 22.464H136.77C134.125 22.464 132.589 22.592 132.162 22.848C131.735 23.104 131.522 24.0853 131.522 25.792V41.536C131.522 43.2427 131.735 44.2667 132.162 44.608C132.589 44.864 134.125 44.992 136.77 44.992Z" fill="#4DD5BC"/>
<path d="M195.344 84.8C195.771 84.8 196.411 84.2027 197.264 83.008C198.203 81.8133 199.269 79.808 200.464 76.992C201.061 75.712 202 73.536 203.28 70.464C204.645 67.3067 206.181 63.68 207.888 59.584C209.68 55.4027 211.515 51.0507 213.392 46.528C215.355 42.0053 217.189 37.6533 218.896 33.472C220.688 29.2907 222.224 25.6213 223.504 22.464C224.869 19.3067 225.808 17.0453 226.32 15.68C227.429 12.9493 228.027 10.9867 228.112 9.792C228.197 8.59733 228.027 8 227.6 8H255.504C255.163 8 255.035 8.59733 255.12 9.792C255.205 10.9013 255.803 12.864 256.912 15.68C257.424 17.0453 258.32 19.3067 259.6 22.464C260.88 25.536 262.373 29.1627 264.08 33.344C265.787 37.44 267.579 41.7493 269.456 46.272C271.333 50.7947 273.125 55.1467 274.832 59.328C276.539 63.424 278.075 67.0507 279.44 70.208C280.805 73.3653 281.787 75.6267 282.384 76.992C283.664 79.808 284.901 81.8133 286.096 83.008C287.291 84.2027 288.187 84.8 288.784 84.8H259.728C260.411 84.7147 260.965 84.0747 261.392 82.88C261.904 81.6 261.904 79.6373 261.392 76.992C261.307 76.3947 261.221 75.9253 261.136 75.584C261.051 75.1573 260.88 74.56 260.624 73.792C260.283 72.512 259.899 71.616 259.472 71.104C259.045 70.5067 258.32 70.1653 257.296 70.08C256.357 69.9947 254.779 69.952 252.56 69.952H230.544C228.24 69.952 226.533 70.0373 225.424 70.208C224.315 70.2933 223.547 70.592 223.12 71.104C222.693 71.616 222.352 72.4693 222.096 73.664C222.011 74.0907 221.883 74.6453 221.712 75.328C221.627 76.0107 221.541 76.5653 221.456 76.992C220.859 79.7227 220.688 81.6853 220.944 82.88C221.285 84.0747 221.712 84.7147 222.224 84.8H195.344ZM233.872 55.872H248.848C251.323 55.872 252.688 55.6587 252.944 55.232C253.2 54.8053 253.072 53.8667 252.56 52.416C251.451 49.6853 250.341 46.912 249.232 44.096C248.123 41.1947 247.056 38.3787 246.032 35.648C245.093 32.9173 244.24 30.4 243.472 28.096C242.789 25.7067 242.192 23.7013 241.68 22.08H241.424C240.229 25.2373 238.992 28.5653 237.712 32.064C236.432 35.5627 235.237 38.8053 234.128 41.792C233.019 44.7787 232.123 47.2533 231.44 49.216C230.757 51.0933 230.416 52.032 230.416 52.032C229.819 53.3973 229.605 54.3787 229.776 54.976C229.947 55.5733 231.312 55.872 233.872 55.872Z" fill="#4DD5BC"/>
<path d="M309.118 84.8C309.715 84.6293 310.099 83.9893 310.27 82.88C310.441 81.6853 310.057 79.808 309.118 77.248C308.777 76.3093 308.009 74.3893 306.814 71.488C305.705 68.5867 304.297 65.088 302.59 60.992C300.969 56.8107 299.219 52.416 297.342 47.808C295.465 43.2 293.63 38.72 291.838 34.368C290.131 30.016 288.595 26.176 287.23 22.848C285.865 19.52 284.841 17.1307 284.158 15.68C283.049 12.9493 281.854 11.0293 280.574 9.92C279.294 8.72533 278.313 8.08533 277.63 8H306.174C305.577 8.08533 305.193 8.72533 305.022 9.92C304.937 11.1147 305.363 13.12 306.302 15.936C306.729 17.0453 307.369 18.9653 308.222 21.696C309.161 24.3413 310.227 27.5413 311.422 31.296C312.702 34.9653 314.025 38.9333 315.39 43.2C316.841 47.4667 318.249 51.776 319.614 56.128C321.065 60.48 322.43 64.576 323.71 68.416H323.966C324.99 64.6613 326.057 60.6933 327.166 56.512C328.275 52.2453 329.385 48.0213 330.494 43.84C331.689 39.5733 332.755 35.5627 333.694 31.808C334.718 28.0533 335.614 24.8107 336.382 22.08C337.15 19.264 337.705 17.216 338.046 15.936C338.814 13.12 339.113 11.1147 338.942 9.92C338.771 8.72533 338.473 8.08533 338.046 8H370.302C369.79 8 369.449 8.59733 369.278 9.792C369.107 10.9867 369.449 13.0773 370.302 16.064C370.643 17.1733 371.198 19.0933 371.966 21.824C372.734 24.5547 373.587 27.7973 374.526 31.552C375.55 35.2213 376.617 39.1893 377.726 43.456C378.921 47.6373 380.073 51.904 381.182 56.256C382.377 60.5227 383.486 64.576 384.51 68.416H384.766C386.131 64.576 387.539 60.5227 388.99 56.256C390.441 51.904 391.891 47.5947 393.342 43.328C394.793 39.0613 396.158 35.0933 397.438 31.424C398.718 27.6693 399.785 24.4267 400.638 21.696C401.577 18.9653 402.217 17.0453 402.558 15.936C403.497 13.0347 403.838 10.9867 403.582 9.792C403.411 8.59733 403.07 8 402.558 8H430.974C430.377 8.08533 429.523 8.768 428.414 10.048C427.305 11.2427 426.025 13.2053 424.574 15.936C423.891 17.216 422.867 19.4347 421.502 22.592C420.137 25.664 418.558 29.2907 416.766 33.472C414.974 37.6533 413.139 42.0053 411.262 46.528C409.385 50.9653 407.593 55.2747 405.886 59.456C404.265 63.552 402.857 67.1787 401.662 70.336C400.467 73.408 399.657 75.584 399.23 76.864C398.377 79.68 398.035 81.6853 398.206 82.88C398.377 84.0747 398.718 84.7147 399.23 84.8H369.662C370.174 84.7147 370.515 84.0747 370.686 82.88C370.857 81.6853 370.515 79.68 369.662 76.864C369.321 75.7547 368.723 73.792 367.87 70.976C367.102 68.0747 366.163 64.6613 365.054 60.736C364.03 56.7253 362.878 52.4587 361.598 47.936C360.318 43.328 359.038 38.72 357.758 34.112C356.478 29.4187 355.283 24.9813 354.174 20.8H353.918C352.809 24.9813 351.614 29.4187 350.334 34.112C349.054 38.72 347.817 43.328 346.622 47.936C345.427 52.544 344.275 56.8533 343.166 60.864C342.142 64.7893 341.246 68.16 340.478 70.976C339.71 73.792 339.155 75.7547 338.814 76.864C338.046 79.5947 337.747 81.6 337.918 82.88C338.089 84.0747 338.387 84.7147 338.814 84.8H309.118Z" fill="#4DD5BC"/>
</g>
<defs>
<filter id="filter0_d_12246_4038" x="0" y="0" width="431.974" height="92.7998" filterUnits="userSpaceOnUse" color-interpolation-filters="sRGB">
<feFlood flood-opacity="0" result="BackgroundImageFix"/>
<feColorMatrix in="SourceAlpha" type="matrix" values="0 0 0 0 0 0 0 0 0 0 0 0 0 0 0 0 0 0 127 0" result="hardAlpha"/>
<feOffset dx="-7"/>
<feGaussianBlur stdDeviation="4"/>
<feComposite in2="hardAlpha" operator="out"/>
<feColorMatrix type="matrix" values="0 0 0 0 0.301961 0 0 0 0 0.835294 0 0 0 0 0.737255 0 0 0 0.5 0"/>
<feBlend mode="normal" in2="BackgroundImageFix" result="effect1_dropShadow_12246_4038"/>
<feBlend mode="normal" in="SourceGraphic" in2="effect1_dropShadow_12246_4038" result="shape"/>
</filter>
</defs>
</svg>
