<svg width="91" height="30" viewBox="0 0 91 30" fill="none" xmlns="http://www.w3.org/2000/svg">
<path d="M-0.000207424 28.7998C0.186459 28.7998 0.373126 28.6131 0.559793 28.2398C0.746459 27.8665 0.839792 27.2531 0.839792 26.3998V7.1998C0.839792 6.34647 0.746459 5.74647 0.559793 5.3998C0.373126 5.02647 0.186459 4.82647 -0.000207424 4.7998H6.15979C5.97313 4.7998 5.78646 4.98647 5.59979 5.3598C5.41313 5.73314 5.31979 6.3598 5.31979 7.2398V26.3998C5.31979 27.2531 5.41313 27.8665 5.59979 28.2398C5.78646 28.6131 5.97313 28.7998 6.15979 28.7998H-0.000207424ZM18.2164 29.1998C16.3764 29.1998 15.043 28.8131 14.2164 28.0398C13.3897 27.2398 12.9764 25.9465 12.9764 24.1598V12.8798H9.37636V10.0798C10.603 10.0798 11.563 9.93314 12.2564 9.6398C12.9497 9.3198 13.443 8.77314 13.7364 7.9998C14.0297 7.22647 14.1764 6.14647 14.1764 4.7598H17.0564V10.0798H24.6964C24.5097 10.3465 24.323 10.7465 24.1364 11.2798C23.9764 11.7865 23.8964 12.3198 23.8964 12.8798H17.0564V23.5598C17.0564 24.7865 17.283 25.5598 17.7364 25.8798C18.1897 26.1998 18.763 26.3598 19.4564 26.3598C20.123 26.3598 20.7364 26.2265 21.2964 25.9598C21.883 25.6665 22.3897 25.3198 22.8164 24.9198C23.2697 24.5198 23.6164 24.1331 23.8564 23.7598V24.9998L24.2564 27.2798C23.9897 27.5465 23.5764 27.8398 23.0164 28.1598C22.4564 28.4531 21.7764 28.6931 20.9764 28.8798C20.1764 29.0931 19.2564 29.1998 18.2164 29.1998ZM27.8998 9.5998L27.0998 8.1998C27.8198 8.01314 28.4598 7.65314 29.0198 7.1198C29.6065 6.5598 29.8998 5.90647 29.8998 5.1598C29.8998 4.41314 29.6865 3.90647 29.2598 3.6398C28.8598 3.34647 28.2465 3.1998 27.4198 3.1998V2.1998C27.4198 1.58647 27.5665 1.06647 27.8598 0.639802C28.1531 0.213137 28.6998 -0.000196457 29.4998 -0.000196457C30.7798 -0.000196457 31.6998 0.413137 32.2598 1.2398C32.8198 2.06647 33.0998 2.98647 33.0998 3.9998C33.0998 5.09314 32.8331 6.0398 32.2998 6.8398C31.7665 7.6398 31.0998 8.26647 30.2998 8.7198C29.4998 9.17314 28.6998 9.46647 27.8998 9.5998ZM47.2998 29.1998C44.7931 29.1998 42.6865 29.0665 40.9798 28.7998C39.2998 28.5331 38.1531 28.2665 37.5398 27.9998V27.1998L36.6998 23.7598C37.3931 24.3198 38.6065 24.9065 40.3398 25.5198C42.0998 26.1065 44.2331 26.3998 46.7398 26.3998C48.3931 26.3998 49.6331 26.2931 50.4598 26.0798C51.2865 25.8398 51.8331 25.5331 52.0998 25.1598C52.3665 24.7598 52.4998 24.3198 52.4998 23.8398C52.4998 23.2798 52.2998 22.8398 51.8998 22.5198C51.5265 22.1731 50.8065 21.8931 49.7398 21.6798C48.6998 21.4398 47.1531 21.1998 45.0998 20.9598C42.8598 20.6931 41.1265 20.3065 39.8998 19.7998C38.6998 19.2931 37.8731 18.6531 37.4198 17.8798C36.9665 17.0798 36.7398 16.1331 36.7398 15.0398C36.7398 14.1865 36.9665 13.3465 37.4198 12.5198C37.8731 11.6931 38.7131 11.0131 39.9398 10.4798C41.1931 9.94647 42.9665 9.6798 45.2598 9.6798C47.7398 9.6798 49.8198 9.81314 51.4998 10.0798C53.2065 10.3465 54.3665 10.6131 54.9798 10.8798V11.6798L55.7798 14.7198C55.1131 14.2398 53.8998 13.7465 52.1398 13.2398C50.3798 12.7331 48.2598 12.4798 45.7798 12.4798C43.8065 12.4798 42.4865 12.7065 41.8198 13.1598C41.1531 13.5865 40.8198 14.1465 40.8198 14.8398C40.8198 15.2398 40.8998 15.5998 41.0598 15.9198C41.2198 16.2131 41.5398 16.4798 42.0198 16.7198C42.5265 16.9598 43.2731 17.1731 44.2598 17.3598C45.2731 17.5465 46.6198 17.7331 48.2998 17.9198C50.5665 18.1598 52.2865 18.5331 53.4598 19.0398C54.6331 19.5465 55.4331 20.1865 55.8598 20.9598C56.3131 21.7065 56.5398 22.5865 56.5398 23.5998C56.5398 24.6931 56.2331 25.6665 55.6198 26.5198C55.0331 27.3465 54.0598 27.9998 52.6998 28.4798C51.3398 28.9598 49.5398 29.1998 47.2998 29.1998ZM77.0017 29.1998C74.095 29.1998 72.055 28.6798 70.8817 27.6398C69.7083 26.5731 69.1217 25.1465 69.1217 23.3598C69.1217 22.1065 69.4283 21.0398 70.0417 20.1598C70.6817 19.2531 71.6283 18.5598 72.8817 18.0798C74.1617 17.5998 75.775 17.3598 77.7217 17.3598C79.1083 17.3598 80.3083 17.4665 81.3217 17.6798C82.3617 17.8665 83.2017 18.0931 83.8417 18.3598C84.5083 18.6265 84.975 18.8531 85.2417 19.0398C85.2417 17.4665 85.0417 16.1998 84.6417 15.2398C84.2683 14.2798 83.655 13.5865 82.8017 13.1598C81.9483 12.7065 80.7883 12.4798 79.3217 12.4798C77.7483 12.4798 76.335 12.6665 75.0817 13.0398C73.855 13.3865 72.8683 13.7731 72.1217 14.1998C71.375 14.5998 70.9083 14.8931 70.7217 15.0798V14.2798L70.3217 11.2798C70.5617 11.1731 71.0817 10.9998 71.8817 10.7598C72.6817 10.4931 73.735 10.2531 75.0417 10.0398C76.3483 9.7998 77.8817 9.6798 79.6417 9.6798C81.8817 9.6798 83.7083 9.9998 85.1217 10.6398C86.5617 11.2531 87.615 12.2131 88.2817 13.5198C88.975 14.7998 89.3217 16.4265 89.3217 18.3998V26.3998C89.3217 27.1465 89.4017 27.6931 89.5617 28.0398C89.7483 28.3598 89.935 28.6131 90.1217 28.7998H85.2417V27.5998L85.3217 26.8398L85.2417 26.7998C84.815 27.1998 84.3083 27.5465 83.7217 27.8398C83.135 28.1331 82.495 28.3865 81.8017 28.5998C81.1083 28.7865 80.3483 28.9331 79.5217 29.0398C78.7217 29.1465 77.8817 29.1998 77.0017 29.1998ZM78.3217 26.3598C79.7617 26.3598 81.0017 26.2131 82.0417 25.9198C83.0817 25.6265 83.8683 25.2398 84.4017 24.7598C84.9617 24.2531 85.2417 23.6798 85.2417 23.0398C85.2417 22.2398 84.7083 21.5598 83.6417 20.9998C82.6017 20.4398 80.975 20.1598 78.7617 20.1598C76.7083 20.1598 75.255 20.4265 74.4017 20.9598C73.575 21.4931 73.1617 22.2931 73.1617 23.3598C73.1617 24.3998 73.5617 25.1598 74.3617 25.6398C75.1883 26.1198 76.5083 26.3598 78.3217 26.3598Z" fill="white"/>
</svg>
