<svg width="520" height="38" viewBox="0 0 520 38" fill="none" xmlns="http://www.w3.org/2000/svg">
<path d="M19.5001 37.2001C12.6201 37.2001 7.6401 35.5601 4.5601 32.2801C1.5201 28.9601 9.78261e-05 24.3401 9.78261e-05 18.4201C9.78261e-05 14.6201 0.660098 11.3601 1.9801 8.6401C3.3401 5.8801 5.4401 3.7601 8.2801 2.2801C11.1601 0.760097 14.9001 9.67979e-05 19.5001 9.67979e-05H21.3601C25.8801 9.67979e-05 29.5401 0.740097 32.3401 2.2201C35.1801 3.7001 37.2601 5.8201 38.5801 8.5801C39.9001 11.3401 40.5601 14.6201 40.5601 18.4201C40.5601 24.3401 39.0401 28.9601 36.0001 32.2801C32.9601 35.5601 28.0801 37.2001 21.3601 37.2001H19.5001ZM20.1001 30.5401H20.7601C23.2001 30.5401 25.2001 30.1401 26.7601 29.3401C28.3601 28.5401 29.5401 27.2601 30.3001 25.5001C31.0601 23.7001 31.4401 21.3401 31.4401 18.4201C31.4401 15.5801 31.0401 13.3001 30.2401 11.5801C29.4801 9.8201 28.3001 8.5601 26.7001 7.8001C25.1401 7.0001 23.1601 6.6001 20.7601 6.6001H20.1001C17.6201 6.6001 15.5601 7.0201 13.9201 7.8601C12.2801 8.6601 11.0601 9.9201 10.2601 11.6401C9.5001 13.3601 9.1201 15.6201 9.1201 18.4201C9.1201 21.3401 9.5201 23.7001 10.3201 25.5001C11.1601 27.2601 12.3801 28.5401 13.9801 29.3401C15.6201 30.1401 17.6601 30.5401 20.1001 30.5401ZM46.0117 36.6001C46.2917 36.6001 46.5517 36.3201 46.7917 35.7601C47.0717 35.2001 47.2117 34.2801 47.2117 33.0001V4.2001C47.2117 2.9201 47.0717 2.0201 46.7917 1.5001C46.5117 0.940095 46.2317 0.640096 45.9517 0.600096H65.6317C69.1517 0.600096 71.9517 1.0401 74.0317 1.9201C76.1517 2.8001 77.6717 4.1001 78.5917 5.8201C79.5517 7.5001 80.0317 9.6001 80.0317 12.1201C80.0317 13.9201 79.6917 15.5201 79.0117 16.9201C78.3717 18.3201 77.4717 19.4601 76.3117 20.3401C75.1517 21.2201 73.8517 21.8601 72.4117 22.2601V22.4401C74.0117 23.0801 75.6917 24.3401 77.4517 26.2201C79.2117 28.0601 80.7917 30.1201 82.1917 32.4001C83.1117 33.8801 83.9517 34.9401 84.7117 35.5801C85.4717 36.2201 86.0517 36.5601 86.4517 36.6001H71.3317C71.8117 36.5601 72.1917 36.3001 72.4717 35.8201C72.7917 35.3001 72.6917 34.4601 72.1717 33.3001C71.3317 31.3801 70.3117 29.7201 69.1117 28.3201C67.9117 26.9201 66.5117 25.8601 64.9117 25.1401C63.3517 24.3801 61.5517 24.0001 59.5117 24.0001H58.8517C57.6117 24.0001 56.8917 24.1001 56.6917 24.3001C56.4917 24.5001 56.3917 25.0001 56.3917 25.8001V33.0001C56.3917 34.2801 56.5317 35.2001 56.8117 35.7601C57.0917 36.3201 57.3717 36.6001 57.6517 36.6001H46.0117ZM58.8517 17.9401H63.7717C66.2917 17.9401 68.1117 17.5001 69.2317 16.6201C70.3517 15.7001 70.9117 14.2001 70.9117 12.1201C70.9117 11.2001 70.7117 10.3801 70.3117 9.6601C69.9117 8.9401 69.2317 8.3801 68.2717 7.9801C67.3517 7.5801 66.0517 7.3801 64.3717 7.3801H58.8517C57.6117 7.3801 56.8917 7.4401 56.6917 7.5601C56.4917 7.6801 56.3917 8.1401 56.3917 8.9401V16.3201C56.3917 17.1201 56.4917 17.6001 56.6917 17.7601C56.8917 17.8801 57.6117 17.9401 58.8517 17.9401ZM86.3082 36.6001C86.5082 36.6001 86.8082 36.3201 87.2082 35.7601C87.6482 35.2001 88.1482 34.2601 88.7082 32.9401C88.9882 32.3401 89.4282 31.3201 90.0282 29.8801C90.6682 28.4001 91.3882 26.7001 92.1882 24.7801C93.0282 22.8201 93.8882 20.7801 94.7682 18.6601C95.6882 16.5401 96.5482 14.5001 97.3482 12.5401C98.1882 10.5801 98.9082 8.8601 99.5082 7.3801C100.148 5.9001 100.588 4.8401 100.828 4.2001C101.348 2.9201 101.628 2.0001 101.668 1.4401C101.708 0.880096 101.628 0.600096 101.428 0.600096H114.508C114.348 0.600096 114.288 0.880096 114.328 1.4401C114.368 1.9601 114.648 2.8801 115.168 4.2001C115.408 4.8401 115.828 5.9001 116.428 7.3801C117.028 8.8201 117.728 10.5201 118.528 12.4801C119.328 14.4001 120.168 16.4201 121.048 18.5401C121.928 20.6601 122.768 22.7001 123.568 24.6601C124.368 26.5801 125.088 28.2801 125.728 29.7601C126.368 31.2401 126.828 32.3001 127.108 32.9401C127.708 34.2601 128.288 35.2001 128.848 35.7601C129.408 36.3201 129.828 36.6001 130.108 36.6001H116.488C116.808 36.5601 117.068 36.2601 117.268 35.7001C117.508 35.1001 117.508 34.1801 117.268 32.9401C117.228 32.6601 117.188 32.4401 117.148 32.2801C117.108 32.0801 117.028 31.8001 116.908 31.4401C116.748 30.8401 116.568 30.4201 116.368 30.1801C116.168 29.9001 115.828 29.7401 115.348 29.7001C114.908 29.6601 114.168 29.6401 113.128 29.6401H102.808C101.728 29.6401 100.928 29.6801 100.408 29.7601C99.8882 29.8001 99.5282 29.9401 99.3282 30.1801C99.1282 30.4201 98.9682 30.8201 98.8482 31.3801C98.8082 31.5801 98.7482 31.8401 98.6682 32.1601C98.6282 32.4801 98.5882 32.7401 98.5482 32.9401C98.2682 34.2201 98.1882 35.1401 98.3082 35.7001C98.4682 36.2601 98.6682 36.5601 98.9082 36.6001H86.3082ZM104.368 23.0401H111.388C112.548 23.0401 113.188 22.9401 113.308 22.7401C113.428 22.5401 113.368 22.1001 113.128 21.4201C112.608 20.1401 112.088 18.8401 111.568 17.5201C111.048 16.1601 110.548 14.8401 110.068 13.5601C109.628 12.2801 109.228 11.1001 108.868 10.0201C108.548 8.9001 108.268 7.9601 108.028 7.2001H107.908C107.348 8.6801 106.768 10.2401 106.168 11.8801C105.568 13.5201 105.008 15.0401 104.488 16.4401C103.968 17.8401 103.548 19.0001 103.228 19.9201C102.908 20.8001 102.748 21.2401 102.748 21.2401C102.468 21.8801 102.368 22.3401 102.448 22.6201C102.528 22.9001 103.168 23.0401 104.368 23.0401ZM133.256 36.6001C133.536 36.6001 133.816 36.3201 134.096 35.7601C134.376 35.2001 134.516 34.2801 134.516 33.0001V4.2001C134.516 2.9201 134.376 2.0201 134.096 1.5001C133.816 0.940095 133.536 0.640096 133.256 0.600096H145.016C144.736 0.600096 144.656 0.880096 144.776 1.4401C144.936 2.0001 145.596 2.9601 146.756 4.32009C147.076 4.6401 147.596 5.2401 148.316 6.1201C149.076 6.9601 149.976 7.9801 151.016 9.1801C152.056 10.3801 153.156 11.6801 154.316 13.0801C155.516 14.4801 156.716 15.8801 157.916 17.2801C159.156 18.6801 160.336 20.0201 161.456 21.3001H161.516V4.2001C161.516 2.9201 161.376 2.0201 161.096 1.5001C160.816 0.940095 160.536 0.640096 160.256 0.600096H172.016C171.736 0.600096 171.456 0.880096 171.176 1.4401C170.896 2.0001 170.756 2.9401 170.756 4.2601V33.0001C170.756 34.2801 170.896 35.2001 171.176 35.7601C171.456 36.3201 171.736 36.6001 172.016 36.6001H161.696C161.936 36.6001 161.956 36.3201 161.756 35.7601C161.596 35.2001 160.976 34.2401 159.896 32.8801C159.336 32.1601 158.596 31.2401 157.676 30.1201C156.756 28.9601 155.716 27.6801 154.556 26.2801C153.436 24.8801 152.256 23.4201 151.016 21.9001C149.776 20.3801 148.536 18.9001 147.296 17.4601C146.096 15.9801 144.976 14.6201 143.936 13.3801H143.756V33.0001C143.756 34.2801 143.896 35.2001 144.176 35.7601C144.456 36.3201 144.736 36.6001 145.016 36.6001H133.256ZM195.002 37.2001C189.562 37.2001 185.262 35.7001 182.102 32.7001C178.982 29.6601 177.422 25.0001 177.422 18.7201C177.422 15.0401 178.122 11.8001 179.522 9.0001C180.922 6.1601 183.142 3.9601 186.182 2.40009C189.222 0.800096 193.162 9.67979e-05 198.002 9.67979e-05C201.802 9.67979e-05 204.942 0.200097 207.422 0.600096C209.942 1.0001 211.662 1.4001 212.582 1.8001V3.6001L213.782 10.2001C212.702 9.4001 210.802 8.6001 208.082 7.8001C205.362 7.0001 202.042 6.6001 198.122 6.6001C195.442 6.6001 193.242 7.0601 191.522 7.9801C189.802 8.8601 188.542 10.2001 187.742 12.0001C186.942 13.8001 186.542 16.0401 186.542 18.7201C186.542 21.6001 186.902 23.9201 187.622 25.6801C188.342 27.4001 189.502 28.6401 191.102 29.4001C192.702 30.1601 194.822 30.5401 197.462 30.5401C199.462 30.5401 201.082 30.3401 202.322 29.9401C203.562 29.5001 204.482 28.9201 205.082 28.2001C205.682 27.4401 205.982 26.6001 205.982 25.6801V24.7201C205.982 23.8001 205.902 23.2801 205.742 23.1601C205.622 23.0001 205.102 22.9201 204.182 22.9201H202.262C200.902 22.9201 199.742 23.0601 198.782 23.3401C197.822 23.6201 197.142 23.9001 196.742 24.1801L197.342 18.2401V16.4401H216.242C215.962 16.4801 215.682 16.7801 215.402 17.3401C215.162 17.8601 215.042 18.7601 215.042 20.0401V33.0001C215.042 34.2801 215.162 35.2001 215.402 35.7601C215.682 36.3201 215.962 36.6001 216.242 36.6001H205.982V35.8201L206.102 34.1401L205.982 34.0201C205.702 34.4201 205.142 34.8801 204.302 35.4001C203.462 35.8801 202.282 36.3001 200.762 36.6601C199.282 37.0201 197.362 37.2001 195.002 37.2001ZM222.26 36.6001C222.54 36.6001 222.82 36.3201 223.1 35.7601C223.38 35.2001 223.52 34.2801 223.52 33.0001V4.2001C223.52 2.9201 223.38 2.0201 223.1 1.5001C222.82 0.940095 222.54 0.640096 222.26 0.600096H257.3V2.40009L258.5 9.3601C257.5 8.9201 255.74 8.4601 253.22 7.9801C250.7 7.4601 247.66 7.2001 244.1 7.2001H235.22C234.02 7.2001 233.3 7.3001 233.06 7.5001C232.86 7.6601 232.76 8.1601 232.76 9.0001V13.4401C232.76 14.3201 232.86 14.8401 233.06 15.0001C233.3 15.1601 234 15.2401 235.16 15.2401H243.8C246.12 15.2401 247.98 15.1201 249.38 14.8801C250.82 14.6001 251.76 14.3201 252.2 14.0401C252.04 14.8001 251.86 15.6801 251.66 16.6801C251.46 17.6801 251.3 18.6401 251.18 19.5601C251.06 20.4801 251 21.2401 251 21.8401H235.16C234 21.8401 233.3 21.9201 233.06 22.0801C232.86 22.2001 232.76 22.7201 232.76 23.6401V28.0801C232.76 29.0001 232.86 29.5401 233.06 29.7001C233.26 29.8601 233.96 29.9401 235.16 29.9401H251.36C253.68 29.9401 255.54 29.6801 256.94 29.1601C258.38 28.6001 259.32 28.0601 259.76 27.5401L258.56 34.7401V36.6001H222.26ZM278.453 36.6001C278.733 36.6001 278.993 36.3201 279.233 35.7601C279.513 35.2001 279.653 34.2801 279.653 33.0001V4.2001C279.653 2.9201 279.513 2.0201 279.233 1.5001C278.953 0.940095 278.673 0.640096 278.393 0.600096H298.073C301.473 0.600096 304.213 1.1001 306.293 2.10009C308.413 3.0601 309.973 4.4601 310.973 6.3001C311.973 8.1001 312.473 10.2601 312.473 12.7801C312.473 15.3401 311.973 17.5601 310.973 19.4401C309.973 21.2801 308.413 22.7001 306.293 23.7001C304.213 24.6601 301.473 25.1401 298.073 25.1401H288.893V33.0001C288.893 34.2801 289.033 35.2001 289.313 35.7601C289.593 36.3201 289.873 36.6001 290.153 36.6001H278.453ZM291.353 18.5401H294.353C296.713 18.5401 298.533 18.3401 299.813 17.9401C301.133 17.5401 302.053 16.9201 302.573 16.0801C303.093 15.2401 303.353 14.1401 303.353 12.7801C303.353 11.4601 303.073 10.4001 302.513 9.6001C301.993 8.8001 301.113 8.2401 299.873 7.9201C298.673 7.5601 297.033 7.3801 294.953 7.3801H291.353C290.113 7.3801 289.393 7.4601 289.193 7.6201C288.993 7.7401 288.893 8.2001 288.893 9.0001V16.8601C288.893 17.6601 288.993 18.1401 289.193 18.3001C289.393 18.4601 290.113 18.5401 291.353 18.5401ZM317.592 36.6001C317.872 36.6001 318.152 36.3201 318.432 35.7601C318.712 35.2001 318.852 34.2801 318.852 33.0001V4.2001C318.852 2.9201 318.712 2.0201 318.432 1.5001C318.152 0.940095 317.872 0.640096 317.592 0.600096H329.352C329.072 0.600096 328.792 0.880096 328.512 1.4401C328.232 2.0001 328.092 2.9401 328.092 4.2601V28.0801C328.092 28.9601 328.192 29.5001 328.392 29.7001C328.632 29.8601 329.352 29.9401 330.552 29.9401H345.012C347.332 29.9401 349.192 29.6801 350.592 29.1601C352.032 28.6001 352.972 28.0601 353.412 27.5401L351.612 34.7401V36.6001H317.592ZM353.906 36.6001C354.106 36.6001 354.406 36.3201 354.806 35.7601C355.246 35.2001 355.746 34.2601 356.306 32.9401C356.586 32.3401 357.026 31.3201 357.626 29.8801C358.266 28.4001 358.986 26.7001 359.786 24.7801C360.626 22.8201 361.486 20.7801 362.366 18.6601C363.286 16.5401 364.146 14.5001 364.946 12.5401C365.786 10.5801 366.506 8.8601 367.106 7.3801C367.746 5.9001 368.186 4.8401 368.426 4.2001C368.946 2.9201 369.226 2.0001 369.266 1.4401C369.306 0.880096 369.226 0.600096 369.026 0.600096H382.106C381.946 0.600096 381.886 0.880096 381.926 1.4401C381.966 1.9601 382.246 2.8801 382.766 4.2001C383.006 4.8401 383.426 5.9001 384.026 7.3801C384.626 8.8201 385.326 10.5201 386.126 12.4801C386.926 14.4001 387.766 16.4201 388.646 18.5401C389.526 20.6601 390.366 22.7001 391.166 24.6601C391.966 26.5801 392.686 28.2801 393.326 29.7601C393.966 31.2401 394.426 32.3001 394.706 32.9401C395.306 34.2601 395.886 35.2001 396.446 35.7601C397.006 36.3201 397.426 36.6001 397.706 36.6001H384.086C384.406 36.5601 384.666 36.2601 384.866 35.7001C385.106 35.1001 385.106 34.1801 384.866 32.9401C384.826 32.6601 384.786 32.4401 384.746 32.2801C384.706 32.0801 384.626 31.8001 384.506 31.4401C384.346 30.8401 384.166 30.4201 383.966 30.1801C383.766 29.9001 383.426 29.7401 382.946 29.7001C382.506 29.6601 381.766 29.6401 380.726 29.6401H370.406C369.326 29.6401 368.526 29.6801 368.006 29.7601C367.486 29.8001 367.126 29.9401 366.926 30.1801C366.726 30.4201 366.566 30.8201 366.446 31.3801C366.406 31.5801 366.346 31.8401 366.266 32.1601C366.226 32.4801 366.186 32.7401 366.146 32.9401C365.866 34.2201 365.786 35.1401 365.906 35.7001C366.066 36.2601 366.266 36.5601 366.506 36.6001H353.906ZM371.966 23.0401H378.986C380.146 23.0401 380.786 22.9401 380.906 22.7401C381.026 22.5401 380.966 22.1001 380.726 21.4201C380.206 20.1401 379.686 18.8401 379.166 17.5201C378.646 16.1601 378.146 14.8401 377.666 13.5601C377.226 12.2801 376.826 11.1001 376.466 10.0201C376.146 8.9001 375.866 7.9601 375.626 7.2001H375.506C374.946 8.6801 374.366 10.2401 373.766 11.8801C373.166 13.5201 372.606 15.0401 372.086 16.4401C371.566 17.8401 371.146 19.0001 370.826 19.9201C370.506 20.8001 370.346 21.2401 370.346 21.2401C370.066 21.8801 369.966 22.3401 370.046 22.6201C370.126 22.9001 370.766 23.0401 371.966 23.0401ZM405.675 36.6001C405.995 36.6001 406.335 36.3401 406.695 35.8201C407.055 35.2601 407.235 34.3201 407.235 33.0001L407.175 20.6401C406.055 19.2401 404.835 17.7401 403.515 16.1401C402.195 14.5401 400.895 12.9601 399.615 11.4001C398.335 9.8401 397.175 8.4401 396.135 7.2001C395.135 5.9201 394.355 4.9601 393.795 4.32009C392.675 2.9601 391.735 2.0001 390.975 1.4401C390.255 0.880096 389.755 0.600096 389.475 0.600096H403.635C403.355 0.640096 403.255 0.940095 403.335 1.5001C403.415 2.0601 403.915 3.0001 404.835 4.32009C405.275 4.9201 405.775 5.6601 406.335 6.54009C406.935 7.3801 407.555 8.3001 408.195 9.3001C408.835 10.3001 409.455 11.2801 410.055 12.2401C410.695 13.2001 411.275 14.0801 411.795 14.8801H411.855C412.455 14.0001 413.055 13.1201 413.655 12.2401C414.255 11.3201 414.855 10.4201 415.455 9.5401C416.055 8.6601 416.655 7.7801 417.255 6.9001C417.855 5.9801 418.455 5.0801 419.055 4.2001C419.975 2.8401 420.475 1.9001 420.555 1.3801C420.635 0.860096 420.535 0.600096 420.255 0.600096H434.055C433.815 0.640096 433.355 0.920096 432.675 1.4401C431.995 1.9601 431.115 2.8601 430.035 4.1401C429.435 4.8201 428.595 5.8001 427.515 7.0801C426.475 8.3201 425.315 9.7401 424.035 11.3401C422.755 12.9001 421.435 14.5001 420.075 16.1401C418.755 17.7401 417.535 19.2401 416.415 20.6401V33.0001C416.415 34.3201 416.535 35.2601 416.775 35.8201C417.055 36.3401 417.335 36.6001 417.615 36.6001H405.675ZM437.065 36.6001C437.345 36.6001 437.625 36.3201 437.905 35.7601C438.185 35.2001 438.325 34.2801 438.325 33.0001V4.2001C438.325 2.9201 438.185 2.0201 437.905 1.5001C437.625 0.940095 437.345 0.640096 437.065 0.600096H472.105V2.40009L473.305 9.3601C472.305 8.9201 470.545 8.4601 468.025 7.9801C465.505 7.4601 462.465 7.2001 458.905 7.2001H450.025C448.825 7.2001 448.105 7.3001 447.865 7.5001C447.665 7.6601 447.565 8.1601 447.565 9.0001V13.4401C447.565 14.3201 447.665 14.8401 447.865 15.0001C448.105 15.1601 448.805 15.2401 449.965 15.2401H458.605C460.925 15.2401 462.785 15.1201 464.185 14.8801C465.625 14.6001 466.565 14.3201 467.005 14.0401C466.845 14.8001 466.665 15.6801 466.465 16.6801C466.265 17.6801 466.105 18.6401 465.985 19.5601C465.865 20.4801 465.805 21.2401 465.805 21.8401H449.965C448.805 21.8401 448.105 21.9201 447.865 22.0801C447.665 22.2001 447.565 22.7201 447.565 23.6401V28.0801C447.565 29.0001 447.665 29.5401 447.865 29.7001C448.065 29.8601 448.765 29.9401 449.965 29.9401H466.165C468.485 29.9401 470.345 29.6801 471.745 29.1601C473.185 28.6001 474.125 28.0601 474.565 27.5401L473.365 34.7401V36.6001H437.065ZM478.844 36.6001C479.124 36.6001 479.384 36.3201 479.624 35.7601C479.904 35.2001 480.044 34.2801 480.044 33.0001V4.2001C480.044 2.9201 479.904 2.0201 479.624 1.5001C479.344 0.940095 479.064 0.640096 478.784 0.600096H498.464C501.984 0.600096 504.784 1.0401 506.864 1.9201C508.984 2.8001 510.504 4.1001 511.424 5.8201C512.384 7.5001 512.864 9.6001 512.864 12.1201C512.864 13.9201 512.524 15.5201 511.844 16.9201C511.204 18.3201 510.304 19.4601 509.144 20.3401C507.984 21.2201 506.684 21.8601 505.244 22.2601V22.4401C506.844 23.0801 508.524 24.3401 510.284 26.2201C512.044 28.0601 513.624 30.1201 515.024 32.4001C515.944 33.8801 516.784 34.9401 517.544 35.5801C518.304 36.2201 518.884 36.5601 519.284 36.6001H504.164C504.644 36.5601 505.024 36.3001 505.304 35.8201C505.624 35.3001 505.524 34.4601 505.004 33.3001C504.164 31.3801 503.144 29.7201 501.944 28.3201C500.744 26.9201 499.344 25.8601 497.744 25.1401C496.184 24.3801 494.384 24.0001 492.344 24.0001H491.684C490.444 24.0001 489.724 24.1001 489.524 24.3001C489.324 24.5001 489.224 25.0001 489.224 25.8001V33.0001C489.224 34.2801 489.364 35.2001 489.644 35.7601C489.924 36.3201 490.204 36.6001 490.484 36.6001H478.844ZM491.684 17.9401H496.604C499.124 17.9401 500.944 17.5001 502.064 16.6201C503.184 15.7001 503.744 14.2001 503.744 12.1201C503.744 11.2001 503.544 10.3801 503.144 9.6601C502.744 8.9401 502.064 8.3801 501.104 7.9801C500.184 7.5801 498.884 7.3801 497.204 7.3801H491.684C490.444 7.3801 489.724 7.4401 489.524 7.5601C489.324 7.6801 489.224 8.1401 489.224 8.9401V16.3201C489.224 17.1201 489.324 17.6001 489.524 17.7601C489.724 17.8801 490.444 17.9401 491.684 17.9401Z" fill="#F58E39"/>
</svg>
