<svg width="258" height="28" viewBox="0 0 258 28" fill="none" xmlns="http://www.w3.org/2000/svg">
<path d="M9.2801 27.6001C9.46676 27.6001 9.65343 27.4134 9.8401 27.0401C10.0268 26.6668 10.1201 26.0534 10.1201 25.2001V8.0001C10.1201 7.41343 10.0534 7.06676 9.9201 6.9601C9.78677 6.85343 9.3201 6.8001 8.5201 6.8001H5.6001C4.05343 6.8001 2.8001 6.97343 1.8401 7.3201C0.906764 7.6401 0.293431 7.94676 9.76846e-05 8.2401L0.800098 4.4001V3.6001H23.9201V4.4001L24.7201 8.2401C24.4268 7.94676 23.8001 7.6401 22.8401 7.3201C21.9068 6.97343 20.6668 6.8001 19.1201 6.8001H16.2401C15.4134 6.8001 14.9334 6.85343 14.8001 6.9601C14.6668 7.06676 14.6001 7.41343 14.6001 8.0001V25.2001C14.6001 26.0534 14.6934 26.6668 14.8801 27.0401C15.0668 27.4134 15.2534 27.6001 15.4401 27.6001H9.2801ZM26.9479 27.6001C27.1346 27.6001 27.3079 27.4134 27.4679 27.0401C27.6546 26.6668 27.7479 26.0534 27.7479 25.2001V2.4001C27.7479 1.54676 27.6546 0.946763 27.4679 0.600097C27.3079 0.226764 27.1346 0.0267633 26.9479 9.53674e-05H31.8279V10.9201L31.7479 11.4401L31.8279 11.5201C32.2279 11.0134 32.7346 10.5334 33.3479 10.0801C33.9879 9.62676 34.7746 9.25343 35.7079 8.9601C36.6412 8.6401 37.7346 8.4801 38.9879 8.4801C41.4679 8.4801 43.3612 9.18676 44.6679 10.6001C46.0012 12.0134 46.6679 14.2268 46.6679 17.2401V25.2001C46.6679 26.0534 46.7479 26.6668 46.9079 27.0401C47.0946 27.4134 47.2812 27.6001 47.4679 27.6001H41.7879C41.9746 27.6001 42.1479 27.4134 42.3079 27.0401C42.4946 26.6668 42.5879 26.0534 42.5879 25.2001V17.3601C42.5879 15.7868 42.3879 14.5601 41.9879 13.6801C41.5879 12.8001 41.0279 12.1868 40.3079 11.8401C39.6146 11.4668 38.8012 11.2801 37.8679 11.2801C36.8812 11.2801 35.9212 11.4934 34.9879 11.9201C34.0546 12.3468 33.2946 13.0268 32.7079 13.9601C32.1212 14.8934 31.8279 16.1468 31.8279 17.7201V25.2001C31.8279 26.0534 31.9079 26.6668 32.0679 27.0401C32.2546 27.4134 32.4412 27.6001 32.6279 27.6001H26.9479ZM60.9332 28.0001C58.8266 28.0001 57.0932 27.7601 55.7332 27.2801C54.3732 26.7734 53.3066 26.0801 52.5332 25.2001C51.7599 24.3201 51.2132 23.2934 50.8932 22.1201C50.5999 20.9468 50.4532 19.6668 50.4532 18.2801C50.4532 15.2668 51.3066 12.8801 53.0132 11.1201C54.7466 9.3601 57.3066 8.4801 60.6932 8.4801C62.6666 8.4801 64.2532 8.74676 65.4532 9.2801C66.6799 9.81343 67.5999 10.5201 68.2132 11.4001C68.8532 12.2801 69.2799 13.2401 69.4932 14.2801C69.7332 15.2934 69.8532 16.2934 69.8532 17.2801V19.1601C69.8532 19.0801 69.4799 19.0001 68.7332 18.9201C68.0132 18.8134 66.7866 18.7601 65.0532 18.7601H54.5332C54.5332 20.7334 55.1199 22.2934 56.2932 23.4401C57.4666 24.5868 59.2132 25.1601 61.5332 25.1601C63.5332 25.1601 65.1732 24.9201 66.4532 24.4401C67.7599 23.9334 68.6266 23.4401 69.0532 22.9601V23.7601L69.4532 26.4001C68.8666 26.7468 67.8266 27.1068 66.3332 27.4801C64.8666 27.8268 63.0666 28.0001 60.9332 28.0001ZM56.1332 16.1201H65.8532C65.8532 15.4268 65.7066 14.7068 65.4132 13.9601C65.1199 13.2134 64.5999 12.5868 63.8532 12.0801C63.1066 11.5468 62.0532 11.2801 60.6932 11.2801C59.5466 11.2801 58.5466 11.4801 57.6932 11.8801C56.8399 12.2534 56.1732 12.7468 55.6932 13.3601C55.2399 13.9734 55.0132 14.6268 55.0132 15.3201C55.0132 15.5868 55.0932 15.7868 55.2532 15.9201C55.4132 16.0534 55.7066 16.1201 56.1332 16.1201ZM89.2454 27.6001C89.4321 27.6001 89.5521 27.4268 89.6054 27.0801C89.6854 26.7068 89.5654 26.0801 89.2454 25.2001C89.1121 24.8534 88.8587 24.2401 88.4854 23.3601C88.1121 22.4801 87.6721 21.4668 87.1654 20.3201C86.6854 19.1468 86.1787 17.9734 85.6454 16.8001C85.1121 15.6001 84.6187 14.5201 84.1654 13.5601C83.7121 12.5734 83.3521 11.8401 83.0854 11.3601C82.6321 10.5068 82.2187 9.89343 81.8454 9.5201C81.4721 9.1201 81.2054 8.90676 81.0454 8.8801H87.5654C87.3254 8.8801 87.1654 9.06676 87.0854 9.4401C87.0054 9.81343 87.1654 10.4534 87.5654 11.3601C87.7787 11.8134 88.0721 12.5068 88.4454 13.4401C88.8187 14.3468 89.2321 15.4001 89.6854 16.6001C90.1654 17.7734 90.6454 18.9734 91.1254 20.2001C91.6054 21.4268 92.0454 22.5734 92.4454 23.6401H92.4854C92.8854 22.5468 93.3121 21.3868 93.7654 20.1601C94.2187 18.9068 94.6587 17.6801 95.0854 16.4801C95.5387 15.2801 95.9387 14.2268 96.2854 13.3201C96.6321 12.3868 96.8987 11.7068 97.0854 11.2801C97.4587 10.4268 97.6054 9.81343 97.5254 9.4401C97.4454 9.06676 97.2987 8.8801 97.0854 8.8801H103.485C103.245 8.8801 103.085 9.06676 103.005 9.4401C102.925 9.81343 103.085 10.4534 103.485 11.3601C103.699 11.8134 103.979 12.5068 104.325 13.4401C104.699 14.3468 105.099 15.4001 105.525 16.6001C105.979 17.7734 106.432 18.9734 106.885 20.2001C107.339 21.4268 107.752 22.5734 108.125 23.6401H108.165C108.619 22.5468 109.099 21.3868 109.605 20.1601C110.112 18.9068 110.619 17.6801 111.125 16.4801C111.632 15.2801 112.072 14.2268 112.445 13.3201C112.845 12.3868 113.139 11.7068 113.325 11.2801C113.699 10.4268 113.845 9.81343 113.765 9.4401C113.685 9.06676 113.539 8.8801 113.325 8.8801H119.605C119.445 8.8801 119.192 9.06676 118.845 9.4401C118.525 9.78676 118.152 10.3868 117.725 11.2401C117.485 11.6934 117.139 12.3868 116.685 13.3201C116.232 14.2534 115.725 15.3068 115.165 16.4801C114.605 17.6268 114.059 18.7734 113.525 19.9201C112.992 21.0668 112.525 22.1201 112.125 23.0801C111.725 24.0134 111.459 24.7201 111.325 25.2001C111.085 26.0801 110.992 26.7068 111.045 27.0801C111.099 27.4268 111.192 27.6001 111.325 27.6001H104.925C105.112 27.6001 105.232 27.4268 105.285 27.0801C105.365 26.7068 105.245 26.0801 104.925 25.2001C104.845 24.9601 104.645 24.4134 104.325 23.5601C104.005 22.7068 103.619 21.6801 103.165 20.4801C102.712 19.2534 102.245 17.9868 101.765 16.6801C101.285 15.3734 100.819 14.1334 100.365 12.9601H100.245C99.8187 14.0801 99.3521 15.2801 98.8454 16.5601C98.3387 17.8134 97.8587 19.0401 97.4054 20.2401C96.9521 21.4134 96.5654 22.4534 96.2454 23.3601C95.9254 24.2401 95.7254 24.8534 95.6454 25.2001C95.4054 26.0801 95.3121 26.7068 95.3654 27.0801C95.4187 27.4268 95.5121 27.6001 95.6454 27.6001H89.2454ZM121.44 27.6001C121.627 27.6001 121.8 27.4134 121.96 27.0401C122.147 26.6668 122.24 26.0534 122.24 25.2001V11.2801C122.24 10.4268 122.147 9.82676 121.96 9.4801C121.8 9.10676 121.627 8.90676 121.44 8.8801H126.32V25.2001C126.32 26.0534 126.4 26.6668 126.56 27.0401C126.747 27.4134 126.933 27.6001 127.12 27.6001H121.44ZM123.88 5.0401C123.107 5.0401 122.507 4.82676 122.08 4.4001C121.653 3.94676 121.44 3.42676 121.44 2.8401C121.44 2.22676 121.64 1.70676 122.04 1.2801C122.467 0.85343 123.08 0.640097 123.88 0.640097C124.68 0.640097 125.28 0.85343 125.68 1.2801C126.107 1.70676 126.32 2.22676 126.32 2.8401C126.32 3.42676 126.107 3.94676 125.68 4.4001C125.253 4.82676 124.653 5.0401 123.88 5.0401ZM130.542 27.6001C130.728 27.6001 130.902 27.4134 131.062 27.0401C131.248 26.6668 131.342 26.0534 131.342 25.2001V11.6801C131.342 10.8268 131.248 10.2268 131.062 9.8801C130.902 9.50676 130.728 9.30676 130.542 9.2801C131.715 9.2801 132.728 9.2001 133.582 9.0401C134.462 8.85343 135.075 8.66676 135.422 8.4801V10.9201L135.342 11.4401L135.422 11.5201C135.822 11.0134 136.328 10.5334 136.942 10.0801C137.582 9.62676 138.368 9.25343 139.302 8.9601C140.235 8.6401 141.328 8.4801 142.582 8.4801C145.062 8.4801 146.955 9.18676 148.262 10.6001C149.595 12.0134 150.262 14.2268 150.262 17.2401V25.2001C150.262 26.0534 150.342 26.6668 150.502 27.0401C150.688 27.4134 150.875 27.6001 151.062 27.6001H145.382C145.568 27.6001 145.742 27.4134 145.902 27.0401C146.088 26.6668 146.182 26.0534 146.182 25.2001V17.3601C146.182 15.7868 145.982 14.5601 145.582 13.6801C145.182 12.8001 144.622 12.1868 143.902 11.8401C143.208 11.4668 142.395 11.2801 141.462 11.2801C140.475 11.2801 139.515 11.4934 138.582 11.9201C137.648 12.3468 136.888 13.0268 136.302 13.9601C135.715 14.8934 135.422 16.1468 135.422 17.7201V25.2001C135.422 26.0534 135.502 26.6668 135.662 27.0401C135.848 27.4134 136.035 27.6001 136.222 27.6001H130.542ZM154.487 27.6001C154.674 27.6001 154.847 27.4134 155.007 27.0401C155.194 26.6668 155.287 26.0534 155.287 25.2001V11.6801C155.287 10.8268 155.194 10.2268 155.007 9.8801C154.847 9.50676 154.674 9.30676 154.487 9.2801C155.66 9.2801 156.674 9.2001 157.527 9.0401C158.407 8.85343 159.02 8.66676 159.367 8.4801V10.9201L159.287 11.4401L159.367 11.5201C159.767 11.0134 160.274 10.5334 160.887 10.0801C161.527 9.62676 162.314 9.25343 163.247 8.9601C164.18 8.6401 165.274 8.4801 166.527 8.4801C169.007 8.4801 170.9 9.18676 172.207 10.6001C173.54 12.0134 174.207 14.2268 174.207 17.2401V25.2001C174.207 26.0534 174.287 26.6668 174.447 27.0401C174.634 27.4134 174.82 27.6001 175.007 27.6001H169.327C169.514 27.6001 169.687 27.4134 169.847 27.0401C170.034 26.6668 170.127 26.0534 170.127 25.2001V17.3601C170.127 15.7868 169.927 14.5601 169.527 13.6801C169.127 12.8001 168.567 12.1868 167.847 11.8401C167.154 11.4668 166.34 11.2801 165.407 11.2801C164.42 11.2801 163.46 11.4934 162.527 11.9201C161.594 12.3468 160.834 13.0268 160.247 13.9601C159.66 14.8934 159.367 16.1468 159.367 17.7201V25.2001C159.367 26.0534 159.447 26.6668 159.607 27.0401C159.794 27.4134 159.98 27.6001 160.167 27.6001H154.487ZM188.472 28.0001C186.366 28.0001 184.632 27.7601 183.272 27.2801C181.912 26.7734 180.846 26.0801 180.072 25.2001C179.299 24.3201 178.752 23.2934 178.432 22.1201C178.139 20.9468 177.992 19.6668 177.992 18.2801C177.992 15.2668 178.846 12.8801 180.552 11.1201C182.286 9.3601 184.846 8.4801 188.232 8.4801C190.206 8.4801 191.792 8.74676 192.992 9.2801C194.219 9.81343 195.139 10.5201 195.752 11.4001C196.392 12.2801 196.819 13.2401 197.032 14.2801C197.272 15.2934 197.392 16.2934 197.392 17.2801V19.1601C197.392 19.0801 197.019 19.0001 196.272 18.9201C195.552 18.8134 194.326 18.7601 192.592 18.7601H182.072C182.072 20.7334 182.659 22.2934 183.832 23.4401C185.006 24.5868 186.752 25.1601 189.072 25.1601C191.072 25.1601 192.712 24.9201 193.992 24.4401C195.299 23.9334 196.166 23.4401 196.592 22.9601V23.7601L196.992 26.4001C196.406 26.7468 195.366 27.1068 193.872 27.4801C192.406 27.8268 190.606 28.0001 188.472 28.0001ZM183.672 16.1201H193.392C193.392 15.4268 193.246 14.7068 192.952 13.9601C192.659 13.2134 192.139 12.5868 191.392 12.0801C190.646 11.5468 189.592 11.2801 188.232 11.2801C187.086 11.2801 186.086 11.4801 185.232 11.8801C184.379 12.2534 183.712 12.7468 183.232 13.3601C182.779 13.9734 182.552 14.6268 182.552 15.3201C182.552 15.5868 182.632 15.7868 182.792 15.9201C182.952 16.0534 183.246 16.1201 183.672 16.1201ZM200.815 27.6001C201.002 27.6001 201.175 27.4134 201.335 27.0401C201.522 26.6668 201.615 26.0534 201.615 25.2001V11.6801C201.615 10.8268 201.522 10.2268 201.335 9.8801C201.175 9.50676 201.002 9.30676 200.815 9.2801C201.988 9.2801 203.002 9.2001 203.855 9.0401C204.735 8.85343 205.348 8.66676 205.695 8.4801V10.4801L205.615 11.1601L205.695 11.2401C206.095 10.7068 206.575 10.2401 207.135 9.8401C207.722 9.41343 208.388 9.0801 209.135 8.8401C209.882 8.6001 210.735 8.4801 211.695 8.4801C212.948 8.4801 214.028 8.66676 214.935 9.0401C215.868 9.38676 216.535 9.74676 216.935 10.1201L216.135 13.4801V14.6801C215.788 14.2534 215.282 13.8134 214.615 13.3601C213.975 12.8801 213.242 12.4801 212.415 12.1601C211.588 11.8401 210.708 11.6801 209.775 11.6801C208.708 11.6801 207.762 12.1068 206.935 12.9601C206.108 13.8134 205.695 15.2268 205.695 17.2001V25.2001C205.695 26.0534 205.775 26.6668 205.935 27.0401C206.122 27.4134 206.308 27.6001 206.495 27.6001H200.815ZM229.174 27.6001C229.361 27.6001 229.534 27.4134 229.694 27.0401C229.881 26.6668 229.974 26.0534 229.974 25.2001V11.2801C229.974 10.4268 229.881 9.82676 229.694 9.4801C229.534 9.10676 229.361 8.90676 229.174 8.8801H234.054V25.2001C234.054 26.0534 234.134 26.6668 234.294 27.0401C234.481 27.4134 234.668 27.6001 234.854 27.6001H229.174ZM231.614 5.0401C230.841 5.0401 230.241 4.82676 229.814 4.4001C229.388 3.94676 229.174 3.42676 229.174 2.8401C229.174 2.22676 229.374 1.70676 229.774 1.2801C230.201 0.85343 230.814 0.640097 231.614 0.640097C232.414 0.640097 233.014 0.85343 233.414 1.2801C233.841 1.70676 234.054 2.22676 234.054 2.8401C234.054 3.42676 233.841 3.94676 233.414 4.4001C232.988 4.82676 232.388 5.0401 231.614 5.0401ZM248.636 28.0001C246.129 28.0001 244.023 27.8668 242.316 27.6001C240.636 27.3334 239.489 27.0668 238.876 26.8001V26.0001L238.036 22.5601C238.729 23.1201 239.943 23.7068 241.676 24.3201C243.436 24.9068 245.569 25.2001 248.076 25.2001C249.729 25.2001 250.969 25.0934 251.796 24.8801C252.623 24.6401 253.169 24.3334 253.436 23.9601C253.703 23.5601 253.836 23.1201 253.836 22.6401C253.836 22.0801 253.636 21.6401 253.236 21.3201C252.863 20.9734 252.143 20.6934 251.076 20.4801C250.036 20.2401 248.489 20.0001 246.436 19.7601C244.196 19.4934 242.463 19.1068 241.236 18.6001C240.036 18.0934 239.209 17.4534 238.756 16.6801C238.303 15.8801 238.076 14.9334 238.076 13.8401C238.076 12.9868 238.303 12.1468 238.756 11.3201C239.209 10.4934 240.049 9.81343 241.276 9.2801C242.529 8.74676 244.303 8.4801 246.596 8.4801C249.076 8.4801 251.156 8.61343 252.836 8.8801C254.543 9.14676 255.703 9.41343 256.316 9.6801V10.4801L257.116 13.5201C256.449 13.0401 255.236 12.5468 253.476 12.0401C251.716 11.5334 249.596 11.2801 247.116 11.2801C245.143 11.2801 243.823 11.5068 243.156 11.9601C242.489 12.3868 242.156 12.9468 242.156 13.6401C242.156 14.0401 242.236 14.4001 242.396 14.7201C242.556 15.0134 242.876 15.2801 243.356 15.5201C243.863 15.7601 244.609 15.9734 245.596 16.1601C246.609 16.3468 247.956 16.5334 249.636 16.7201C251.903 16.9601 253.623 17.3334 254.796 17.8401C255.969 18.3468 256.769 18.9868 257.196 19.7601C257.649 20.5068 257.876 21.3868 257.876 22.4001C257.876 23.4934 257.569 24.4668 256.956 25.3201C256.369 26.1468 255.396 26.8001 254.036 27.2801C252.676 27.7601 250.876 28.0001 248.636 28.0001Z" fill="white"/>
</svg>
