<svg width="400" height="73" viewBox="0 0 400 73" fill="none" xmlns="http://www.w3.org/2000/svg">
<path d="M-7.77245e-05 56V-3.8147e-06H18.9599C22.7999 -3.8147e-06 26.1599 0.586663 29.0399 1.76C31.9199 2.93333 34.1599 4.72 35.7599 7.12C37.3599 9.46666 38.1599 12.4 38.1599 15.92C38.1599 18.1067 37.5999 20.1333 36.4799 22C35.4133 23.8133 33.8933 25.3867 31.9199 26.72C34.5333 28.0533 36.5333 29.84 37.9199 32.08C39.3599 34.2667 40.0799 36.9067 40.0799 40C40.0799 43.4133 39.3066 46.32 37.7599 48.72C36.2133 51.12 34.0533 52.9333 31.2799 54.16C28.5066 55.3867 25.2533 56 21.5199 56H-7.77245e-05ZM10.7199 46.32H20.4799C23.0933 46.32 25.1466 45.68 26.6399 44.4C28.1333 43.0667 28.8799 41.3067 28.8799 39.12C28.8799 36.8267 28.0533 35.04 26.3999 33.76C24.7466 32.4267 22.4799 31.76 19.5999 31.76H10.7199V46.32ZM10.7199 22.8H19.1999C21.5999 22.8 23.4933 22.1867 24.8799 20.96C26.2666 19.7333 26.9599 18 26.9599 15.76C26.9599 13.52 26.1866 11.7867 24.6399 10.56C23.0933 9.33333 20.9866 8.72 18.3199 8.72H10.7199V22.8ZM47.4643 56V-3.8147e-06H58.0243V56H47.4643ZM81.3918 56.96C78.1918 56.96 75.4718 56.32 73.2318 55.04C71.0451 53.76 69.3651 51.7867 68.1918 49.12C67.0185 46.4 66.4318 42.9067 66.4318 38.64V16H76.9918V36.48C76.9918 39.1467 77.2851 41.2533 77.8718 42.8C78.5118 44.2933 79.3918 45.3867 80.5118 46.08C81.6851 46.72 82.9918 47.04 84.4318 47.04C87.2051 47.0933 89.3118 46.2667 90.7518 44.56C92.1918 42.8 92.9118 40.2667 92.9118 36.96V16H103.472V56H93.5518L93.1518 50.56C91.8185 52.5867 90.1385 54.16 88.1118 55.28C86.1385 56.4 83.8985 56.96 81.3918 56.96ZM130.701 56.96C126.754 56.96 123.261 56.08 120.221 54.32C117.181 52.5067 114.781 50.0267 113.021 46.88C111.314 43.7333 110.461 40.1067 110.461 36C110.461 31.8933 111.341 28.2667 113.101 25.12C114.914 21.9733 117.367 19.52 120.461 17.76C123.607 15.9467 127.207 15.04 131.261 15.04C134.781 15.04 138.007 15.9733 140.941 17.84C143.927 19.6533 146.301 22.3467 148.061 25.92C149.874 29.44 150.781 33.7333 150.781 38.8H121.501C121.767 41.4667 122.914 43.6 124.941 45.2C126.967 46.7467 129.261 47.52 131.821 47.52C134.007 47.52 135.794 47.0667 137.181 46.16C138.567 45.2 139.634 43.9733 140.381 42.48L149.821 46.16C148.701 48.4 147.234 50.3467 145.421 52C143.661 53.6 141.554 54.8267 139.101 55.68C136.647 56.5333 133.847 56.96 130.701 56.96ZM122.061 30.96H139.341C139.181 29.3067 138.647 27.9733 137.741 26.96C136.834 25.9467 135.767 25.2 134.541 24.72C133.314 24.24 132.114 24 130.941 24C129.821 24 128.594 24.24 127.261 24.72C125.981 25.1467 124.834 25.8667 123.821 26.88C122.861 27.8933 122.274 29.2533 122.061 30.96ZM177.5 56V-3.8147e-06H198.3C202.247 -3.8147e-06 205.74 0.799997 208.78 2.4C211.82 3.94666 214.193 6.13333 215.9 8.96C217.607 11.7333 218.46 14.96 218.46 18.64C218.46 22.2667 217.633 25.4933 215.98 28.32C214.327 31.1467 212.06 33.3867 209.18 35.04C206.3 36.64 202.967 37.44 199.18 37.44H188.46V56H177.5ZM188.46 27.36H198.94C201.393 27.36 203.393 26.56 204.94 24.96C206.54 23.3067 207.34 21.2 207.34 18.64C207.34 16.08 206.46 14 204.7 12.4C202.993 10.8 200.78 10 198.06 10H188.46V27.36ZM224.183 56V-3.8147e-06H234.743V56H224.183ZM256.831 56.96C252.031 56.96 248.297 55.8933 245.631 53.76C243.017 51.6267 241.711 48.6133 241.711 44.72C241.711 40.4533 243.124 37.2533 245.951 35.12C248.831 32.9333 252.857 31.84 258.031 31.84H267.471C267.097 29.3867 266.324 27.52 265.151 26.24C263.977 24.9067 262.297 24.24 260.111 24.24C258.404 24.24 256.857 24.6133 255.471 25.36C254.084 26.1067 252.911 27.2533 251.951 28.8L242.671 25.6C243.417 23.8933 244.511 22.24 245.951 20.64C247.391 18.9867 249.257 17.6533 251.551 16.64C253.897 15.5733 256.751 15.04 260.111 15.04C264.164 15.04 267.524 15.8133 270.191 17.36C272.911 18.9067 274.911 21.0933 276.191 23.92C277.524 26.6933 278.164 30 278.111 33.84L277.871 56H268.031L267.871 51.36C266.857 53.1733 265.417 54.56 263.551 55.52C261.737 56.48 259.497 56.96 256.831 56.96ZM258.591 48.16C260.297 48.16 261.844 47.76 263.231 46.96C264.617 46.16 265.711 45.12 266.511 43.84C267.311 42.56 267.711 41.2267 267.711 39.84V39.68H261.711C258.244 39.68 255.844 40.1067 254.511 40.96C253.177 41.76 252.511 42.9067 252.511 44.4C252.511 45.5733 253.044 46.5067 254.111 47.2C255.177 47.84 256.671 48.16 258.591 48.16ZM293.433 72.96C291.993 72.96 290.393 72.6667 288.633 72.08C286.926 71.5467 285.406 70.9067 284.073 70.16L287.993 61.6C288.9 62.08 289.726 62.4533 290.473 62.72C291.273 63.04 291.966 63.2 292.553 63.2C293.673 63.2 294.66 62.88 295.513 62.24C296.366 61.6533 297.06 60.7733 297.593 59.6L299.273 55.52L281.193 16H292.793L304.153 43.6L315.033 16H326.633L308.473 59.44C307.353 62.1067 306.18 64.4533 304.953 66.48C303.726 68.56 302.206 70.16 300.393 71.28C298.633 72.4 296.313 72.96 293.433 72.96ZM348.357 56.96C344.41 56.96 340.917 56.08 337.877 54.32C334.837 52.5067 332.437 50.0267 330.677 46.88C328.97 43.7333 328.117 40.1067 328.117 36C328.117 31.8933 328.997 28.2667 330.757 25.12C332.57 21.9733 335.023 19.52 338.117 17.76C341.263 15.9467 344.863 15.04 348.917 15.04C352.437 15.04 355.663 15.9733 358.597 17.84C361.583 19.6533 363.957 22.3467 365.717 25.92C367.53 29.44 368.437 33.7333 368.437 38.8H339.157C339.423 41.4667 340.57 43.6 342.597 45.2C344.623 46.7467 346.917 47.52 349.477 47.52C351.663 47.52 353.45 47.0667 354.837 46.16C356.223 45.2 357.29 43.9733 358.037 42.48L367.477 46.16C366.357 48.4 364.89 50.3467 363.077 52C361.317 53.6 359.21 54.8267 356.757 55.68C354.303 56.5333 351.503 56.96 348.357 56.96ZM339.717 30.96H356.997C356.837 29.3067 356.303 27.9733 355.397 26.96C354.49 25.9467 353.423 25.2 352.197 24.72C350.97 24.24 349.77 24 348.597 24C347.477 24 346.25 24.24 344.917 24.72C343.637 25.1467 342.49 25.8667 341.477 26.88C340.517 27.8933 339.93 29.2533 339.717 30.96ZM374.574 56V16H385.134V23.36C386.787 20.8533 388.867 18.9867 391.374 17.76C393.934 16.48 396.574 15.84 399.294 15.84V26.08C396.84 26.08 394.52 26.3733 392.334 26.96C390.2 27.5467 388.467 28.5067 387.134 29.84C385.8 31.1733 385.134 32.88 385.134 34.96V56H374.574Z" fill="white"/>
</svg>
