<svg width="348" height="279" viewBox="0 0 348 279" fill="none" xmlns="http://www.w3.org/2000/svg">
<path d="M172.367 1.5C175.638 1.5 178.477 3.29097 180.446 5.94824C182.085 8.15974 183.169 11.0249 183.487 14.1797C187.936 14.5213 191.931 17.0593 194.128 20.9404H194.176L194.583 21.7969C196.304 25.4232 199.966 27.7401 203.987 27.7402H288.257C290.314 25.3591 293.353 23.8506 296.748 23.8506C302.946 23.8507 307.968 28.872 307.968 35.0703C307.968 38.2604 306.635 41.1362 304.499 43.1787L332.474 100.61H345.371L344.831 102.519C342.948 109.166 336.898 114.776 328.672 118.695C320.401 122.636 309.697 124.99 298.048 124.99C286.399 124.99 275.695 122.636 267.424 118.695C259.198 114.776 253.147 109.166 251.265 102.519L250.724 100.61H260.158L288.419 42.5879C288.089 42.2229 287.784 41.8359 287.504 41.4297H195.537V48.4697C195.537 52.6311 193.763 56.3752 190.933 58.9922L200.354 67.0605L201.468 68.0146L200.538 69.1494C187.837 84.6685 181.941 105.683 180.943 130.74H180.958V202.64H181.657C185.826 202.64 189.207 206.021 189.207 210.189V218.489C189.207 220.548 188.382 222.413 187.045 223.775C188.388 225.239 189.208 227.189 189.208 229.33V232.44H189.218V233.94C189.218 242.412 196.086 249.28 204.558 249.28H228.038C235.576 249.28 241.688 255.392 241.688 262.931C241.687 270.469 235.576 276.58 228.038 276.58H115.328C107.79 276.58 101.678 270.469 101.678 262.931C101.678 255.392 107.79 249.28 115.328 249.28H138.808C147.279 249.28 154.147 242.412 154.147 233.94V229.33C154.148 227.189 154.967 225.238 156.31 223.775C154.973 222.413 154.147 220.547 154.147 218.489V210.189C154.148 206.021 157.529 202.64 161.697 202.64H162.408V130.74H162.436C161.449 105.643 155.553 84.5972 142.837 69.0596L141.908 67.9248L143.021 66.9707L152.389 58.9443C149.588 56.3278 147.838 52.6014 147.838 48.4697V41.4297H57.2412C56.8045 42.0634 56.3035 42.6485 55.749 43.1787L83.7227 100.61H96.6318L96.0908 102.519C94.208 109.166 88.1579 114.776 79.9316 118.695C71.6603 122.636 60.9568 124.99 49.3076 124.99C37.6585 124.99 26.9549 122.636 18.6836 118.695C10.4574 114.776 4.4072 109.166 2.52441 102.519L1.98438 100.61H11.3867L39.6543 42.5713C37.8665 40.5839 36.7784 37.955 36.7783 35.0703C36.7783 28.8719 41.7996 23.8506 47.998 23.8506C51.393 23.8506 54.4321 25.359 56.4893 27.7402H139.817C143.838 27.7402 147.501 25.4234 149.223 21.7969C151.429 17.1495 156.106 14.1746 161.251 14.1416C161.574 11.0019 162.656 8.15083 164.288 5.94824C166.257 3.29099 169.097 1.50009 172.367 1.5ZM299.218 46.0137V100.61H325.889L299.287 45.9971C299.264 46.0024 299.241 46.0085 299.218 46.0137ZM266.743 100.61H293.308V46.0723L266.743 100.61ZM50.4775 46.0117V100.61H77.1387L50.5361 45.998C50.5166 46.0026 50.4971 46.0073 50.4775 46.0117ZM17.9717 100.61H44.5576V46.0264L17.9717 100.61Z" fill="#FD5B4F" stroke="#FD5B4F" stroke-width="3"/>
</svg>
