<svg width="74" height="29" viewBox="0 0 74 29" fill="none" xmlns="http://www.w3.org/2000/svg">
<path d="M0.000273526 28V-1.90735e-06H3.40027V28H0.000273526ZM17.4596 28.48C15.513 28.48 14.0063 27.9733 12.9396 26.96C11.873 25.9467 11.3396 24.52 11.3396 22.68V10.84H7.85965V8H11.3396V1.76H14.5396V8H20.5396V10.84H14.5396V22.36C14.5396 23.3733 14.8063 24.16 15.3396 24.72C15.8996 25.2533 16.673 25.52 17.6596 25.52C17.9796 25.52 18.2863 25.48 18.5796 25.4C18.8996 25.2933 19.313 25.0533 19.8196 24.68L21.0596 27.28C20.3663 27.7333 19.7396 28.04 19.1796 28.2C18.6196 28.3867 18.0463 28.48 17.4596 28.48ZM22.9768 8.44L25.2568 -1.90735e-06H28.8568L25.7368 8.44H22.9768ZM36.6271 28.48C35.1605 28.48 33.8805 28.2667 32.7871 27.84C31.6938 27.3867 30.7738 26.8 30.0271 26.08C29.3071 25.36 28.7871 24.5733 28.4671 23.72L31.2671 22.56C31.7205 23.4667 32.4005 24.2 33.3071 24.76C34.2138 25.32 35.2138 25.6 36.3071 25.6C37.5605 25.6 38.6138 25.36 39.4671 24.88C40.3205 24.3733 40.7471 23.6667 40.7471 22.76C40.7471 21.9333 40.4271 21.2667 39.7871 20.76C39.1738 20.2533 38.2538 19.84 37.0271 19.52L35.1071 19C33.2938 18.52 31.8805 17.8 30.8671 16.84C29.8538 15.8533 29.3471 14.7467 29.3471 13.52C29.3471 11.6267 29.9605 10.16 31.1871 9.12C32.4405 8.05333 34.2938 7.52 36.7471 7.52C37.9205 7.52 38.9871 7.69333 39.9471 8.04C40.9071 8.38667 41.7338 8.88 42.4271 9.52C43.1205 10.1333 43.6271 10.8667 43.9471 11.72L41.1471 12.96C40.8005 12.0533 40.2271 11.4 39.4271 11C38.6271 10.6 37.6538 10.4 36.5071 10.4C35.2805 10.4 34.3205 10.6667 33.6271 11.2C32.9338 11.7067 32.5871 12.4267 32.5871 13.36C32.5871 13.8933 32.8671 14.4 33.4271 14.88C34.0138 15.3333 34.8671 15.7067 35.9871 16L37.9871 16.52C39.2938 16.84 40.3871 17.32 41.2671 17.96C42.1471 18.5733 42.8138 19.28 43.2671 20.08C43.7205 20.88 43.9471 21.7333 43.9471 22.64C43.9471 23.84 43.6271 24.88 42.9871 25.76C42.3471 26.64 41.4805 27.32 40.3871 27.8C39.2938 28.2533 38.0405 28.48 36.6271 28.48ZM64.4628 28.48C62.1161 28.48 60.2761 27.9467 58.9428 26.88C57.6361 25.7867 56.9828 24.28 56.9828 22.36C56.9828 20.3333 57.6494 18.7867 58.9828 17.72C60.3428 16.6267 62.2361 16.08 64.6628 16.08H70.2228C70.0894 14.1867 69.6228 12.7733 68.8228 11.84C68.0228 10.88 66.8228 10.4 65.2228 10.4C64.1294 10.4 63.1828 10.6267 62.3828 11.08C61.6094 11.5067 60.9694 12.2 60.4628 13.16L57.5828 12.04C58.0894 11.1067 58.7028 10.3067 59.4228 9.64C60.1428 8.94667 60.9828 8.42667 61.9428 8.08C62.9028 7.70667 63.9961 7.52 65.2228 7.52C67.0894 7.52 68.6228 7.89333 69.8228 8.64C71.0494 9.36 71.9694 10.44 72.5828 11.88C73.1961 13.2933 73.4894 15.0533 73.4628 17.16L73.4228 28H70.4628L70.3028 25.32C69.7161 26.3333 68.9294 27.12 67.9428 27.68C66.9561 28.2133 65.7961 28.48 64.4628 28.48ZM64.6228 25.68C65.7694 25.68 66.7694 25.44 67.6228 24.96C68.4761 24.4533 69.1294 23.7467 69.5828 22.84C70.0628 21.9333 70.3028 20.84 70.3028 19.56V18.76H65.3828C63.5161 18.76 62.1828 19.0667 61.3828 19.68C60.6094 20.2933 60.2228 21.1733 60.2228 22.32C60.2228 23.36 60.6094 24.1867 61.3828 24.8C62.1561 25.3867 63.2361 25.68 64.6228 25.68Z" fill="white"/>
</svg>
