<svg width="518" height="74" viewBox="0 0 518 74" fill="none" xmlns="http://www.w3.org/2000/svg">
<path d="M28.8802 57.8399C23.2269 57.8399 18.2135 56.6132 13.8402 54.1599C9.5202 51.6532 6.13353 48.2399 3.6802 43.9199C1.22686 39.5465 0.000195324 34.5599 0.000195324 28.9599C0.000195324 23.2532 1.22686 18.2399 3.6802 13.9199C6.13353 9.54655 9.49353 6.13321 13.7602 3.67988C18.0802 1.22655 23.0402 -0.000119209 28.6402 -0.000119209C34.2935 -0.000119209 39.2535 1.25321 43.5202 3.75988C47.8402 6.21321 51.2269 9.62655 53.6802 13.9999C56.1335 18.3199 57.3602 23.3065 57.3602 28.9599C57.3602 34.5599 56.1335 39.5465 53.6802 43.9199C51.2802 48.2399 47.9202 51.6532 43.6002 54.1599C39.3335 56.6132 34.4269 57.8399 28.8802 57.8399ZM28.8802 47.8399C32.2935 47.8399 35.2802 47.0399 37.8402 45.4399C40.4535 43.7865 42.4802 41.5465 43.9202 38.7199C45.4135 35.8932 46.1602 32.6399 46.1602 28.9599C46.1602 25.2265 45.4135 21.9465 43.9202 19.1199C42.4269 16.2932 40.3735 14.0799 37.7602 12.4799C35.1469 10.8265 32.1069 9.99988 28.6402 9.99988C25.2802 9.99988 22.2669 10.8265 19.6002 12.4799C16.9869 14.0799 14.9335 16.2932 13.4402 19.1199C11.9469 21.9465 11.2002 25.2265 11.2002 28.9599C11.2002 32.6399 11.9469 35.8932 13.4402 38.7199C14.9335 41.5465 17.0135 43.7865 19.6802 45.4399C22.3469 47.0399 25.4135 47.8399 28.8802 47.8399ZM72.1689 35.8399C72.1689 31.5199 72.9956 27.9465 74.6489 25.1199C76.3556 22.2932 78.5156 20.1865 81.1289 18.7999C83.7956 17.4132 86.5689 16.7199 89.4489 16.7199V26.9599C86.9956 26.9599 84.6756 27.2532 82.4889 27.8399C80.3556 28.4265 78.6223 29.3865 77.2889 30.7199C75.9556 32.0532 75.2889 33.7599 75.2889 35.8399H72.1689ZM64.7289 56.8799V16.8799H75.2889V56.8799H64.7289ZM119.201 56.8799L118.881 48.7999V36.6399C118.881 34.2399 118.615 32.1865 118.081 30.4799C117.601 28.7732 116.801 27.4665 115.681 26.5599C114.615 25.5999 113.148 25.1199 111.281 25.1199C109.575 25.1199 108.028 25.4932 106.641 26.2399C105.255 26.9865 104.081 28.1332 103.121 29.6799L93.8414 26.4799C94.5881 24.7732 95.6814 23.1199 97.1214 21.5199C98.5614 19.8665 100.428 18.5332 102.721 17.5199C105.068 16.4532 107.921 15.9199 111.281 15.9199C115.335 15.9199 118.695 16.6932 121.361 18.2399C124.081 19.7865 126.081 21.9732 127.361 24.7999C128.695 27.5732 129.335 30.8799 129.281 34.7199L129.041 56.8799H119.201ZM108.001 57.8399C103.201 57.8399 99.4681 56.7732 96.8014 54.6399C94.1881 52.5065 92.8814 49.4932 92.8814 45.5999C92.8814 41.3332 94.2948 38.1332 97.1214 35.9999C100.001 33.8132 104.028 32.7199 109.201 32.7199H119.361V40.5599H112.881C109.415 40.5599 107.015 40.9865 105.681 41.8399C104.348 42.6399 103.681 43.7865 103.681 45.2799C103.681 46.4532 104.215 47.3865 105.281 48.0799C106.348 48.7199 107.841 49.0399 109.761 49.0399C111.521 49.0399 113.068 48.6399 114.401 47.8399C115.788 46.9865 116.881 45.9199 117.681 44.6399C118.481 43.3065 118.881 41.9465 118.881 40.5599H121.441C121.441 45.9999 120.401 50.2399 118.321 53.2799C116.295 56.3199 112.855 57.8399 108.001 57.8399ZM137.698 56.8799V16.8799H147.618L148.258 24.2399V56.8799H137.698ZM164.178 56.8799V36.3999H174.738V56.8799H164.178ZM164.178 36.3999C164.178 33.6799 163.858 31.5732 163.218 30.0799C162.631 28.5865 161.778 27.5199 160.658 26.8799C159.538 26.1865 158.231 25.8399 156.738 25.8399C154.018 25.7865 151.911 26.6132 150.418 28.3199C148.978 30.0265 148.258 32.5599 148.258 35.9199H144.738C144.738 31.6532 145.351 28.0532 146.578 25.1199C147.858 22.1332 149.618 19.8665 151.858 18.3199C154.151 16.7199 156.818 15.9199 159.858 15.9199C163.004 15.9199 165.698 16.5599 167.938 17.8399C170.178 19.1199 171.884 21.1199 173.058 23.8399C174.231 26.5065 174.791 29.9732 174.738 34.2399V36.3999H164.178ZM201.166 73.9199C198.126 73.9199 195.433 73.7066 193.086 73.2799C190.74 72.8532 188.766 72.2932 187.166 71.5999C185.566 70.9066 184.26 70.2132 183.246 69.5199L187.406 61.0399C188.153 61.4665 189.14 61.9465 190.366 62.4799C191.593 63.0665 193.06 63.5465 194.766 63.9199C196.473 64.3465 198.446 64.5599 200.686 64.5599C202.82 64.5599 204.686 64.1332 206.286 63.2799C207.94 62.4799 209.22 61.1999 210.126 59.4399C211.086 57.7332 211.566 55.5465 211.566 52.8799V16.8799H222.126V52.5599C222.126 57.0399 221.273 60.8799 219.566 64.0799C217.86 67.3332 215.433 69.7866 212.286 71.4399C209.193 73.0932 205.486 73.9199 201.166 73.9199ZM199.086 55.7599C195.406 55.7599 192.206 54.9599 189.486 53.3599C186.82 51.7599 184.74 49.5199 183.246 46.6399C181.753 43.7599 181.006 40.3465 181.006 36.3999C181.006 32.2399 181.753 28.6399 183.246 25.5999C184.74 22.5065 186.82 20.1332 189.486 18.4799C192.206 16.7732 195.406 15.9199 199.086 15.9199C202.286 15.9199 205.06 16.7732 207.406 18.4799C209.753 20.1332 211.566 22.5065 212.846 25.5999C214.126 28.6932 214.766 32.3732 214.766 36.6399C214.766 40.4799 214.126 43.8399 212.846 46.7199C211.566 49.5999 209.753 51.8399 207.406 53.4399C205.06 54.9865 202.286 55.7599 199.086 55.7599ZM202.126 46.8799C203.94 46.8799 205.513 46.4265 206.846 45.5199C208.233 44.5599 209.3 43.2799 210.046 41.6799C210.793 40.0265 211.166 38.1599 211.166 36.0799C211.166 33.9465 210.766 32.0799 209.966 30.4799C209.22 28.8799 208.153 27.6265 206.766 26.7199C205.433 25.8132 203.86 25.3599 202.046 25.3599C200.18 25.3599 198.526 25.8132 197.086 26.7199C195.646 27.6265 194.526 28.8799 193.726 30.4799C192.926 32.0799 192.5 33.9465 192.446 36.0799C192.5 38.1599 192.926 40.0265 193.726 41.6799C194.526 43.2799 195.646 44.5599 197.086 45.5199C198.58 46.4265 200.26 46.8799 202.126 46.8799ZM249.293 57.8399C245.347 57.8399 241.853 56.9599 238.813 55.1999C235.773 53.3865 233.373 50.9065 231.613 47.7599C229.907 44.6132 229.053 40.9865 229.053 36.8799C229.053 32.7732 229.933 29.1465 231.693 25.9999C233.507 22.8532 235.96 20.3999 239.053 18.6399C242.2 16.8265 245.8 15.9199 249.853 15.9199C253.373 15.9199 256.6 16.8532 259.533 18.7199C262.52 20.5332 264.893 23.2265 266.653 26.7999C268.467 30.3199 269.373 34.6132 269.373 39.6799H239.053L240.013 38.7199C240.013 40.6932 240.493 42.4265 241.453 43.9199C242.467 45.3599 243.747 46.4799 245.293 47.2799C246.893 48.0265 248.6 48.3999 250.413 48.3999C252.6 48.3999 254.387 47.9465 255.773 47.0399C257.16 46.0799 258.227 44.8532 258.973 43.3599L268.413 47.0399C267.293 49.2799 265.827 51.2265 264.013 52.8799C262.253 54.4799 260.147 55.7065 257.693 56.5599C255.24 57.4132 252.44 57.8399 249.293 57.8399ZM240.573 32.7999L239.613 31.8399H258.893L258.013 32.7999C258.013 30.8799 257.56 29.3599 256.653 28.2399C255.747 27.0665 254.627 26.2132 253.293 25.6799C252.013 25.1465 250.76 24.8799 249.533 24.8799C248.307 24.8799 247 25.1465 245.613 25.6799C244.227 26.2132 243.027 27.0665 242.013 28.2399C241.053 29.3599 240.573 30.8799 240.573 32.7999ZM296.093 56.8799V0.879879H316.893C320.839 0.879879 324.333 1.67988 327.373 3.27988C330.413 4.82655 332.786 7.01321 334.493 9.83988C336.199 12.6132 337.053 15.8399 337.053 19.5199C337.053 23.1465 336.226 26.3732 334.573 29.1999C332.919 32.0265 330.653 34.2665 327.773 35.9199C324.893 37.5199 321.559 38.3199 317.773 38.3199H307.053V56.8799H296.093ZM307.053 28.2399H317.533C319.986 28.2399 321.986 27.4399 323.533 25.8399C325.133 24.1865 325.933 22.0799 325.933 19.5199C325.933 16.9599 325.053 14.8799 323.293 13.2799C321.586 11.6799 319.373 10.8799 316.653 10.8799H307.053V28.2399ZM342.776 56.8799V0.879879H353.336V56.8799H342.776ZM386.623 56.8799L386.303 48.7999V36.6399C386.303 34.2399 386.037 32.1865 385.503 30.4799C385.023 28.7732 384.223 27.4665 383.103 26.5599C382.037 25.5999 380.57 25.1199 378.703 25.1199C376.997 25.1199 375.45 25.4932 374.063 26.2399C372.677 26.9865 371.503 28.1332 370.543 29.6799L361.263 26.4799C362.01 24.7732 363.103 23.1199 364.543 21.5199C365.983 19.8665 367.85 18.5332 370.143 17.5199C372.49 16.4532 375.343 15.9199 378.703 15.9199C382.757 15.9199 386.117 16.6932 388.783 18.2399C391.503 19.7865 393.503 21.9732 394.783 24.7999C396.117 27.5732 396.757 30.8799 396.703 34.7199L396.463 56.8799H386.623ZM375.423 57.8399C370.623 57.8399 366.89 56.7732 364.223 54.6399C361.61 52.5065 360.303 49.4932 360.303 45.5999C360.303 41.3332 361.717 38.1332 364.543 35.9999C367.423 33.8132 371.45 32.7199 376.623 32.7199H386.783V40.5599H380.303C376.837 40.5599 374.437 40.9865 373.103 41.8399C371.77 42.6399 371.103 43.7865 371.103 45.2799C371.103 46.4532 371.637 47.3865 372.703 48.0799C373.77 48.7199 375.263 49.0399 377.183 49.0399C378.943 49.0399 380.49 48.6399 381.823 47.8399C383.21 46.9865 384.303 45.9199 385.103 44.6399C385.903 43.3065 386.303 41.9465 386.303 40.5599H388.863C388.863 45.9999 387.823 50.2399 385.743 53.2799C383.717 56.3199 380.277 57.8399 375.423 57.8399ZM412.026 73.8399C410.586 73.8399 408.986 73.5466 407.226 72.9599C405.519 72.4266 403.999 71.7866 402.666 71.0399L406.586 62.4799C407.492 62.9599 408.319 63.3332 409.066 63.5999C409.866 63.9199 410.559 64.0799 411.146 64.0799C412.266 64.0799 413.252 63.7599 414.106 63.1199C414.959 62.5332 415.652 61.6532 416.186 60.4799L420.906 49.3599L433.626 16.8799H445.226L427.066 60.3199C425.946 62.9865 424.772 65.3332 423.546 67.3599C422.319 69.4399 420.799 71.0399 418.986 72.1599C417.226 73.2799 414.906 73.8399 412.026 73.8399ZM418.106 56.8799L399.786 16.8799H411.386L424.746 49.3599L428.186 56.8799H418.106ZM466.95 57.8399C463.003 57.8399 459.51 56.9599 456.47 55.1999C453.43 53.3865 451.03 50.9065 449.27 47.7599C447.563 44.6132 446.71 40.9865 446.71 36.8799C446.71 32.7732 447.59 29.1465 449.35 25.9999C451.163 22.8532 453.616 20.3999 456.71 18.6399C459.856 16.8265 463.456 15.9199 467.51 15.9199C471.03 15.9199 474.256 16.8532 477.19 18.7199C480.176 20.5332 482.55 23.2265 484.31 26.7999C486.123 30.3199 487.03 34.6132 487.03 39.6799H456.71L457.67 38.7199C457.67 40.6932 458.15 42.4265 459.11 43.9199C460.123 45.3599 461.403 46.4799 462.95 47.2799C464.55 48.0265 466.256 48.3999 468.07 48.3999C470.256 48.3999 472.043 47.9465 473.43 47.0399C474.816 46.0799 475.883 44.8532 476.63 43.3599L486.07 47.0399C484.95 49.2799 483.483 51.2265 481.67 52.8799C479.91 54.4799 477.803 55.7065 475.35 56.5599C472.896 57.4132 470.096 57.8399 466.95 57.8399ZM458.23 32.7999L457.27 31.8399H476.55L475.67 32.7999C475.67 30.8799 475.216 29.3599 474.31 28.2399C473.403 27.0665 472.283 26.2132 470.95 25.6799C469.67 25.1465 468.416 24.8799 467.19 24.8799C465.963 24.8799 464.656 25.1465 463.27 25.6799C461.883 26.2132 460.683 27.0665 459.67 28.2399C458.71 29.3599 458.23 30.8799 458.23 32.7999ZM500.606 35.8399C500.606 31.5199 501.433 27.9465 503.086 25.1199C504.793 22.2932 506.953 20.1865 509.566 18.7999C512.233 17.4132 515.006 16.7199 517.886 16.7199V26.9599C515.433 26.9599 513.113 27.2532 510.926 27.8399C508.793 28.4265 507.06 29.3865 505.726 30.7199C504.393 32.0532 503.726 33.7599 503.726 35.8399H500.606ZM493.166 56.8799V16.8799H503.726V56.8799H493.166Z" fill="white"/>
</svg>
