<svg width="233" height="30" viewBox="0 0 233 30" fill="none" xmlns="http://www.w3.org/2000/svg">
<path d="M8.91957 28.6401V3.72014H-0.000429653V0.640135H21.1996V3.72014H12.2796V28.6401H8.91957ZM24.4299 28.6401V0.640135H27.6299V11.5601C28.2965 10.4668 29.1632 9.6268 30.2299 9.04014C31.2966 8.45347 32.5366 8.16014 33.9499 8.16014C35.4966 8.16014 36.8566 8.48014 38.0299 9.12014C39.2032 9.73347 40.1099 10.7201 40.7499 12.0801C41.4166 13.4401 41.7366 15.2268 41.7099 17.4401V28.6401H38.5099V18.4001C38.5099 16.4268 38.2699 14.9201 37.7899 13.8801C37.3366 12.8401 36.7099 12.1335 35.9099 11.7601C35.1099 11.3601 34.2032 11.1601 33.1899 11.1601C31.4299 11.1601 30.0565 11.7868 29.0699 13.0401C28.1099 14.2668 27.6299 16.0135 27.6299 18.2801V28.6401H24.4299ZM55.4946 29.1201C53.5479 29.1201 51.8279 28.6801 50.3346 27.8001C48.8412 26.8935 47.6679 25.6535 46.8146 24.0801C45.9879 22.5068 45.5746 20.6935 45.5746 18.6401C45.5746 16.5868 45.9879 14.7735 46.8146 13.2001C47.6679 11.6268 48.8279 10.4001 50.2946 9.52014C51.7879 8.61347 53.4946 8.16014 55.4146 8.16014C57.2812 8.16014 58.8946 8.6268 60.2546 9.56014C61.6146 10.4668 62.6679 11.7468 63.4146 13.4001C64.1612 15.0535 64.5346 17.0001 64.5346 19.2401H48.8146C48.9479 21.4268 49.6412 23.1335 50.8946 24.3601C52.1479 25.5868 53.7346 26.2001 55.6546 26.2001C57.0679 26.2001 58.2546 25.8668 59.2146 25.2001C60.2012 24.5335 60.9612 23.6535 61.4946 22.5601L64.2546 23.9601C63.7479 25.0001 63.0679 25.9068 62.2146 26.6801C61.3879 27.4535 60.4012 28.0535 59.2546 28.4801C58.1346 28.9068 56.8812 29.1201 55.4946 29.1201ZM49.0546 16.5601H61.0946C61.0146 15.4135 60.7079 14.4268 60.1746 13.6001C59.6679 12.7735 59.0012 12.1335 58.1746 11.6801C57.3479 11.2268 56.4146 11.0001 55.3746 11.0001C54.3612 11.0001 53.3879 11.2268 52.4546 11.6801C51.5212 12.1068 50.7479 12.7468 50.1346 13.6001C49.5212 14.4268 49.1612 15.4135 49.0546 16.5601ZM82.8533 28.6401L76.0533 8.64014H79.2933L84.4933 24.1601L89.7733 8.64014H92.9733L98.1733 24.0401L103.373 8.64014H106.613L99.8133 28.6401H96.6133L91.3733 13.0001L86.0933 28.6401H82.8533ZM110.021 28.6401V8.64014H113.221V28.6401H110.021ZM111.661 4.00013C111.127 4.00013 110.661 3.80013 110.261 3.40014C109.861 3.00014 109.661 2.53347 109.661 2.00014C109.661 1.44014 109.861 0.973469 110.261 0.600135C110.661 0.200136 111.127 0.000135899 111.661 0.000135899C112.221 0.000135899 112.687 0.200136 113.061 0.600135C113.461 0.973469 113.661 1.44014 113.661 2.00014C113.661 2.53347 113.461 3.00014 113.061 3.40014C112.687 3.80013 112.221 4.00013 111.661 4.00013ZM119.117 28.6401V8.64014H122.117L122.277 11.6401C122.944 10.5201 123.811 9.6668 124.877 9.08014C125.944 8.4668 127.184 8.16014 128.597 8.16014C130.171 8.16014 131.531 8.48014 132.677 9.12014C133.851 9.73347 134.757 10.7201 135.397 12.0801C136.064 13.4401 136.384 15.2268 136.357 17.4401V28.6401H133.157V18.4001C133.157 16.4268 132.931 14.9201 132.477 13.8801C132.024 12.8401 131.397 12.1335 130.597 11.7601C129.797 11.3601 128.891 11.1601 127.877 11.1601C126.117 11.1601 124.744 11.7868 123.757 13.0401C122.797 14.2668 122.317 16.0135 122.317 18.2801V28.6401H119.117ZM141.422 28.6401V8.64014H144.422L144.582 11.6401C145.249 10.5201 146.115 9.6668 147.182 9.08014C148.249 8.4668 149.489 8.16014 150.902 8.16014C152.475 8.16014 153.835 8.48014 154.982 9.12014C156.155 9.73347 157.062 10.7201 157.702 12.0801C158.369 13.4401 158.689 15.2268 158.662 17.4401V28.6401H155.462V18.4001C155.462 16.4268 155.235 14.9201 154.782 13.8801C154.329 12.8401 153.702 12.1335 152.902 11.7601C152.102 11.3601 151.195 11.1601 150.182 11.1601C148.422 11.1601 147.049 11.7868 146.062 13.0401C145.102 14.2668 144.622 16.0135 144.622 18.2801V28.6401H141.422ZM172.487 29.1201C170.54 29.1201 168.82 28.6801 167.327 27.8001C165.833 26.8935 164.66 25.6535 163.807 24.0801C162.98 22.5068 162.567 20.6935 162.567 18.6401C162.567 16.5868 162.98 14.7735 163.807 13.2001C164.66 11.6268 165.82 10.4001 167.287 9.52014C168.78 8.61347 170.487 8.16014 172.407 8.16014C174.273 8.16014 175.887 8.6268 177.247 9.56014C178.607 10.4668 179.66 11.7468 180.407 13.4001C181.153 15.0535 181.527 17.0001 181.527 19.2401H165.807C165.94 21.4268 166.633 23.1335 167.887 24.3601C169.14 25.5868 170.727 26.2001 172.647 26.2001C174.06 26.2001 175.247 25.8668 176.207 25.2001C177.193 24.5335 177.953 23.6535 178.487 22.5601L181.247 23.9601C180.74 25.0001 180.06 25.9068 179.207 26.6801C178.38 27.4535 177.393 28.0535 176.247 28.4801C175.127 28.9068 173.873 29.1201 172.487 29.1201ZM166.047 16.5601H178.087C178.007 15.4135 177.7 14.4268 177.167 13.6001C176.66 12.7735 175.993 12.1335 175.167 11.6801C174.34 11.2268 173.407 11.0001 172.367 11.0001C171.353 11.0001 170.38 11.2268 169.447 11.6801C168.513 12.1068 167.74 12.7468 167.127 13.6001C166.513 14.4268 166.153 15.4135 166.047 16.5601ZM185.563 28.6401V8.64014H188.763V12.2001C189.563 10.9468 190.589 10.0268 191.843 9.44014C193.123 8.85347 194.456 8.56014 195.843 8.56014V11.5601C194.669 11.5601 193.536 11.7601 192.443 12.1601C191.376 12.5335 190.496 13.1601 189.803 14.0401C189.109 14.9201 188.763 16.1201 188.763 17.6401V28.6401H185.563ZM209.161 28.6401V8.64014H212.361V28.6401H209.161ZM210.801 4.00013C210.268 4.00013 209.801 3.80013 209.401 3.40014C209.001 3.00014 208.801 2.53347 208.801 2.00014C208.801 1.44014 209.001 0.973469 209.401 0.600135C209.801 0.200136 210.268 0.000135899 210.801 0.000135899C211.361 0.000135899 211.828 0.200136 212.201 0.600135C212.601 0.973469 212.801 1.44014 212.801 2.00014C212.801 2.53347 212.601 3.00014 212.201 3.40014C211.828 3.80013 211.361 4.00013 210.801 4.00013ZM225.258 29.1201C223.791 29.1201 222.511 28.9068 221.418 28.4801C220.325 28.0268 219.405 27.4401 218.658 26.7201C217.938 26.0001 217.418 25.2135 217.098 24.3601L219.898 23.2001C220.351 24.1068 221.031 24.8401 221.938 25.4001C222.845 25.9601 223.845 26.2401 224.938 26.2401C226.191 26.2401 227.245 26.0001 228.098 25.5201C228.951 25.0135 229.378 24.3068 229.378 23.4001C229.378 22.5735 229.058 21.9068 228.418 21.4001C227.805 20.8935 226.885 20.4801 225.658 20.1601L223.738 19.6401C221.925 19.1601 220.511 18.4401 219.498 17.4801C218.485 16.4935 217.978 15.3868 217.978 14.1601C217.978 12.2668 218.591 10.8001 219.818 9.76014C221.071 8.69347 222.925 8.16014 225.378 8.16014C226.551 8.16014 227.618 8.33347 228.578 8.68014C229.538 9.0268 230.365 9.52014 231.058 10.1601C231.751 10.7735 232.258 11.5068 232.578 12.3601L229.778 13.6001C229.431 12.6935 228.858 12.0401 228.058 11.6401C227.258 11.2401 226.285 11.0401 225.138 11.0401C223.911 11.0401 222.951 11.3068 222.258 11.8401C221.565 12.3468 221.218 13.0668 221.218 14.0001C221.218 14.5335 221.498 15.0401 222.058 15.5201C222.645 15.9735 223.498 16.3468 224.618 16.6401L226.618 17.1601C227.925 17.4801 229.018 17.9601 229.898 18.6001C230.778 19.2135 231.445 19.9201 231.898 20.7201C232.351 21.5201 232.578 22.3735 232.578 23.2801C232.578 24.4801 232.258 25.5201 231.618 26.4001C230.978 27.2801 230.111 27.9601 229.018 28.4401C227.925 28.8935 226.671 29.1201 225.258 29.1201Z" fill="white"/>
</svg>
