<svg width="135" height="19" viewBox="0 0 135 19" fill="none" xmlns="http://www.w3.org/2000/svg">
<path d="M-5.85318e-05 18.46C0.121275 18.46 0.242608 18.3386 0.363941 18.096C0.485275 17.8533 0.545941 17.4546 0.545941 16.9V4.41996C0.545941 3.86529 0.485275 3.47529 0.363941 3.24996C0.242608 3.00729 0.121275 2.87729 -5.85318e-05 2.85996H14.6379V3.37996L15.1579 5.87596C14.7246 5.68529 13.9619 5.48596 12.8699 5.27796C11.7779 5.05263 10.4606 4.93996 8.91794 4.93996H4.52394C4.00394 4.93996 3.69194 4.98329 3.58794 5.06996C3.50127 5.13929 3.45794 5.35596 3.45794 5.71996V8.68396C3.45794 9.06529 3.50127 9.29063 3.58794 9.35996C3.69194 9.42929 3.99528 9.46396 4.49794 9.46396H8.78794C9.79328 9.46396 10.5993 9.41196 11.2059 9.30796C11.8299 9.18663 12.2373 9.06529 12.4279 8.94396C12.3586 9.16929 12.2806 9.43796 12.1939 9.74996C12.1073 10.062 12.0379 10.374 11.9859 10.686C11.9339 10.998 11.9079 11.284 11.9079 11.544H4.49794C3.99528 11.544 3.69194 11.5786 3.58794 11.648C3.50127 11.7 3.45794 11.9253 3.45794 12.324V16.9C3.45794 17.472 3.51861 17.8793 3.63994 18.122C3.76128 18.3473 3.88261 18.46 4.00394 18.46H-5.85318e-05ZM16.8762 18.46C16.9975 18.46 17.1102 18.3386 17.2142 18.096C17.3355 17.8533 17.3962 17.4546 17.3962 16.9V7.85196C17.3962 7.29729 17.3355 6.90729 17.2142 6.68196C17.1102 6.43929 16.9975 6.30929 16.8762 6.29196H20.0482V16.9C20.0482 17.4546 20.1002 17.8533 20.2042 18.096C20.3255 18.3386 20.4468 18.46 20.5682 18.46H16.8762ZM18.4622 3.79596C17.9595 3.79596 17.5695 3.65729 17.2922 3.37996C17.0148 3.08529 16.8762 2.74729 16.8762 2.36596C16.8762 1.96729 17.0062 1.62929 17.2662 1.35196C17.5435 1.07463 17.9422 0.93596 18.4622 0.93596C18.9822 0.93596 19.3722 1.07463 19.6322 1.35196C19.9095 1.62929 20.0482 1.96729 20.0482 2.36596C20.0482 2.74729 19.9095 3.08529 19.6322 3.37996C19.3548 3.65729 18.9648 3.79596 18.4622 3.79596ZM22.7922 18.46C22.9135 18.46 23.0262 18.3386 23.1302 18.096C23.2515 17.8533 23.3122 17.4546 23.3122 16.9V8.11196C23.3122 7.55729 23.2515 7.16729 23.1302 6.94196C23.0262 6.69929 22.9135 6.56929 22.7922 6.55196C23.5549 6.55196 24.2135 6.49996 24.7682 6.39596C25.3402 6.27463 25.7389 6.15329 25.9642 6.03196V7.61796L25.9122 7.95596L25.9642 8.00796C26.2242 7.67863 26.5535 7.36663 26.9522 7.07196C27.3682 6.77729 27.8795 6.53463 28.4862 6.34396C29.0929 6.13596 29.8035 6.03196 30.6182 6.03196C32.2302 6.03196 33.4609 6.49129 34.3102 7.40996C35.1769 8.32863 35.6102 9.76729 35.6102 11.726V16.9C35.6102 17.4546 35.6622 17.8533 35.7662 18.096C35.8875 18.3386 36.0089 18.46 36.1302 18.46H32.4382C32.5595 18.46 32.6722 18.3386 32.7762 18.096C32.8975 17.8533 32.9582 17.4546 32.9582 16.9V11.804C32.9582 10.7813 32.8282 9.98396 32.5682 9.41196C32.3082 8.83996 31.9442 8.44129 31.4762 8.21596C31.0255 7.97329 30.4969 7.85196 29.8902 7.85196C29.2489 7.85196 28.6249 7.99063 28.0182 8.26796C27.4115 8.54529 26.9175 8.98729 26.5362 9.59396C26.1549 10.2006 25.9642 11.0153 25.9642 12.038V16.9C25.9642 17.4546 26.0162 17.8533 26.1202 18.096C26.2415 18.3386 26.3629 18.46 26.4842 18.46H22.7922ZM43.3226 18.72C41.4333 18.72 40.1073 18.382 39.3446 17.706C38.582 17.0126 38.2006 16.0853 38.2006 14.924C38.2006 14.1093 38.4 13.416 38.7986 12.844C39.2146 12.2546 39.83 11.804 40.6446 11.492C41.4766 11.18 42.5253 11.024 43.7906 11.024C44.692 11.024 45.472 11.0933 46.1306 11.232C46.8066 11.3533 47.3526 11.5006 47.7686 11.674C48.202 11.8473 48.5053 11.9946 48.6786 12.116C48.6786 11.0933 48.5486 10.27 48.2886 9.64596C48.046 9.02196 47.6473 8.57129 47.0926 8.29396C46.538 7.99929 45.784 7.85196 44.8306 7.85196C43.808 7.85196 42.8893 7.97329 42.0746 8.21596C41.2773 8.44129 40.636 8.69263 40.1506 8.96996C39.6653 9.22996 39.362 9.42063 39.2406 9.54196V9.02196L38.9806 7.07196C39.1366 7.00263 39.4746 6.88996 39.9946 6.73396C40.5146 6.56063 41.1993 6.40463 42.0486 6.26596C42.898 6.10996 43.8946 6.03196 45.0386 6.03196C46.4946 6.03196 47.682 6.23996 48.6006 6.65596C49.5366 7.05463 50.2213 7.67863 50.6546 8.52796C51.1053 9.35996 51.3306 10.4173 51.3306 11.7V16.9C51.3306 17.3853 51.3826 17.7406 51.4866 17.966C51.608 18.174 51.7293 18.3386 51.8506 18.46H48.6786V17.68L48.7306 17.186L48.6786 17.16C48.4013 17.42 48.072 17.6453 47.6906 17.836C47.3093 18.0266 46.8933 18.1913 46.4426 18.33C45.992 18.4513 45.498 18.5466 44.9606 18.616C44.4406 18.6853 43.8946 18.72 43.3226 18.72ZM44.1806 16.874C45.1166 16.874 45.9226 16.7786 46.5986 16.588C47.2746 16.3973 47.786 16.146 48.1326 15.834C48.4966 15.5046 48.6786 15.132 48.6786 14.716C48.6786 14.196 48.332 13.754 47.6386 13.39C46.9626 13.026 45.9053 12.844 44.4666 12.844C43.132 12.844 42.1873 13.0173 41.6326 13.364C41.0953 13.7106 40.8266 14.2306 40.8266 14.924C40.8266 15.6 41.0866 16.094 41.6066 16.406C42.144 16.718 43.002 16.874 44.1806 16.874ZM54.2028 18.46C54.3242 18.46 54.4368 18.3386 54.5408 18.096C54.6622 17.8533 54.7228 17.4546 54.7228 16.9V2.07996C54.7228 1.52529 54.6622 1.13529 54.5408 0.909961C54.4368 0.667294 54.3242 0.537294 54.2028 0.519959C54.9655 0.519959 55.6242 0.46796 56.1788 0.36396C56.7508 0.242627 57.1495 0.121294 57.3748 -4.00543e-05V16.9C57.3748 17.4546 57.4268 17.8533 57.5308 18.096C57.6522 18.3386 57.7735 18.46 57.8948 18.46H54.2028ZM73.3758 18.72C71.7465 18.72 70.3771 18.6333 69.2678 18.46C68.1758 18.2866 67.4305 18.1133 67.0318 17.94V17.42L66.4858 15.184C66.9365 15.548 67.7251 15.9293 68.8518 16.328C69.9958 16.7093 71.3825 16.9 73.0118 16.9C74.0865 16.9 74.8925 16.8306 75.4298 16.692C75.9671 16.536 76.3225 16.3366 76.4958 16.094C76.6691 15.834 76.7558 15.548 76.7558 15.236C76.7558 14.872 76.6258 14.586 76.3658 14.378C76.1231 14.1526 75.6551 13.9706 74.9618 13.832C74.2858 13.676 73.2805 13.52 71.9458 13.364C70.4898 13.1906 69.3631 12.9393 68.5658 12.61C67.7858 12.2806 67.2485 11.8646 66.9538 11.362C66.6591 10.842 66.5118 10.2266 66.5118 9.51596C66.5118 8.96129 66.6591 8.41529 66.9538 7.87796C67.2485 7.34063 67.7945 6.89863 68.5918 6.55196C69.4065 6.20529 70.5591 6.03196 72.0498 6.03196C73.6618 6.03196 75.0138 6.11863 76.1058 6.29196C77.2151 6.46529 77.9691 6.63863 78.3678 6.81196V7.33196L78.8878 9.30796C78.4545 8.99596 77.6658 8.67529 76.5218 8.34596C75.3778 8.01663 73.9998 7.85196 72.3878 7.85196C71.1051 7.85196 70.2471 7.99929 69.8138 8.29396C69.3805 8.57129 69.1638 8.93529 69.1638 9.38596C69.1638 9.64596 69.2158 9.87996 69.3198 10.088C69.4238 10.2786 69.6318 10.452 69.9438 10.608C70.2731 10.764 70.7585 10.9026 71.3998 11.024C72.0585 11.1453 72.9338 11.2666 74.0258 11.388C75.4991 11.544 76.6171 11.7866 77.3798 12.116C78.1425 12.4453 78.6625 12.8613 78.9398 13.364C79.2345 13.8493 79.3818 14.4213 79.3818 15.08C79.3818 15.7906 79.1825 16.4233 78.7838 16.978C78.4025 17.5153 77.7698 17.94 76.8858 18.252C76.0018 18.564 74.8318 18.72 73.3758 18.72ZM88.2299 18.72C86.4273 18.72 85.0059 18.4426 83.9659 17.888C82.9433 17.3333 82.2239 16.5793 81.8079 15.626C81.3919 14.6726 81.1839 13.598 81.1839 12.402C81.1839 10.2873 81.7559 8.70129 82.8999 7.64396C84.0613 6.58663 85.7513 6.05796 87.9699 6.05796C89.3219 6.05796 90.4573 6.14463 91.3759 6.31796C92.2946 6.49129 92.9273 6.65596 93.2739 6.81196V7.33196L93.7939 9.59396C93.4473 9.22996 92.7886 8.85729 91.8179 8.47596C90.8473 8.07729 89.6253 7.87796 88.1519 7.87796C87.4066 7.87796 86.6959 8.00796 86.0199 8.26796C85.3613 8.51063 84.8239 8.96129 84.4079 9.61996C84.0093 10.2786 83.8099 11.2146 83.8099 12.428C83.8099 13.6066 84.0266 14.5253 84.4599 15.184C84.8933 15.8253 85.4913 16.2673 86.2539 16.51C87.0166 16.7526 87.8833 16.874 88.8539 16.874C90.0846 16.874 91.0986 16.6833 91.8959 16.302C92.7106 15.9206 93.2566 15.548 93.5339 15.184V15.704L93.7939 17.472C93.4646 17.7493 92.8146 18.0266 91.8439 18.304C90.8906 18.5813 89.6859 18.72 88.2299 18.72ZM102.441 18.72C100.707 18.72 99.3468 18.4426 98.3588 17.888C97.3881 17.3333 96.7034 16.5793 96.3048 15.626C95.9234 14.6726 95.7328 13.598 95.7328 12.402C95.7328 11.1886 95.9321 10.1053 96.3308 9.15196C96.7468 8.19863 97.4401 7.44463 98.4108 6.88996C99.3814 6.31796 100.725 6.03196 102.441 6.03196C104.157 6.03196 105.5 6.31796 106.471 6.88996C107.441 7.44463 108.126 8.19863 108.525 9.15196C108.941 10.1053 109.149 11.1886 109.149 12.402C109.149 13.598 108.949 14.6726 108.551 15.626C108.169 16.5793 107.493 17.3333 106.523 17.888C105.552 18.4426 104.191 18.72 102.441 18.72ZM102.441 16.874C103.515 16.874 104.347 16.7006 104.937 16.354C105.526 16.0073 105.933 15.5046 106.159 14.846C106.384 14.17 106.497 13.3553 106.497 12.402C106.497 11.4486 106.375 10.634 106.133 9.95796C105.907 9.28196 105.5 8.76196 104.911 8.39796C104.339 8.03396 103.515 7.85196 102.441 7.85196C101.383 7.85196 100.56 8.04263 99.9708 8.42396C99.3814 8.78796 98.9654 9.31663 98.7228 10.01C98.4974 10.686 98.3848 11.492 98.3848 12.428C98.3848 13.3466 98.4974 14.144 98.7228 14.82C98.9481 15.4786 99.3554 15.99 99.9448 16.354C100.534 16.7006 101.366 16.874 102.441 16.874ZM111.253 18.46C111.374 18.46 111.487 18.3386 111.591 18.096C111.712 17.8533 111.773 17.4546 111.773 16.9V8.11196C111.773 7.55729 111.712 7.16729 111.591 6.94196C111.487 6.69929 111.374 6.56929 111.253 6.55196C112.016 6.55196 112.674 6.49996 113.229 6.39596C113.801 6.27463 114.2 6.15329 114.425 6.03196V7.33196L114.373 7.77396L114.425 7.82596C114.685 7.47929 114.997 7.17596 115.361 6.91596C115.742 6.63863 116.176 6.42196 116.661 6.26596C117.146 6.10996 117.701 6.03196 118.325 6.03196C119.14 6.03196 119.842 6.15329 120.431 6.39596C121.038 6.62129 121.471 6.85529 121.731 7.09796L121.211 9.28196V10.062C120.986 9.78463 120.656 9.49863 120.223 9.20396C119.807 8.89196 119.33 8.63196 118.793 8.42396C118.256 8.21596 117.684 8.11196 117.077 8.11196C116.384 8.11196 115.768 8.38929 115.231 8.94396C114.694 9.49863 114.425 10.4173 114.425 11.7V16.9C114.425 17.4546 114.477 17.8533 114.581 18.096C114.702 18.3386 114.824 18.46 114.945 18.46H111.253ZM129.18 18.72C127.81 18.72 126.684 18.564 125.8 18.252C124.916 17.9226 124.222 17.472 123.72 16.9C123.217 16.328 122.862 15.6606 122.654 14.898C122.463 14.1353 122.368 13.3033 122.368 12.402C122.368 10.4433 122.922 8.89196 124.032 7.74796C125.158 6.60396 126.822 6.03196 129.024 6.03196C130.306 6.03196 131.338 6.20529 132.118 6.55196C132.915 6.89863 133.513 7.35796 133.912 7.92996C134.328 8.50196 134.605 9.12596 134.744 9.80196C134.9 10.4606 134.978 11.1106 134.978 11.752V12.974C134.978 12.922 134.735 12.87 134.25 12.818C133.782 12.7486 132.984 12.714 131.858 12.714H125.02C125.02 13.9966 125.401 15.0106 126.164 15.756C126.926 16.5013 128.062 16.874 129.57 16.874C130.87 16.874 131.936 16.718 132.768 16.406C133.617 16.0766 134.18 15.756 134.458 15.444V15.964L134.718 17.68C134.336 17.9053 133.66 18.1393 132.69 18.382C131.736 18.6073 130.566 18.72 129.18 18.72ZM126.06 10.998H132.378C132.378 10.5473 132.282 10.0793 132.092 9.59396C131.901 9.10863 131.563 8.70129 131.078 8.37196C130.592 8.02529 129.908 7.85196 129.024 7.85196C128.278 7.85196 127.628 7.98196 127.074 8.24196C126.519 8.48463 126.086 8.80529 125.774 9.20396C125.479 9.60263 125.332 10.0273 125.332 10.478C125.332 10.6513 125.384 10.7813 125.488 10.868C125.592 10.9546 125.782 10.998 126.06 10.998Z" fill="white"/>
</svg>
