<svg width="191" height="22" viewBox="0 0 191 22" fill="none" xmlns="http://www.w3.org/2000/svg">
<path d="M-0.000221744 21.5879V1.42789H18.5638V5.15189H3.72378V9.63189H15.6518V13.3839H3.72378V21.5879H-0.000221744ZM22.0262 21.5879V5.34789H25.6942V21.5879H22.0262ZM22.0262 3.72389V0.0278895H25.6942V3.72389H22.0262ZM30.9054 21.5879V5.34789H43.5334C44.2428 5.34789 44.8868 5.52522 45.4654 5.87989C46.0628 6.23456 46.5294 6.70122 46.8654 7.27989C47.2201 7.85856 47.3974 8.50256 47.3974 9.21189V21.5879H43.7294V9.35189C43.7294 9.25856 43.6921 9.18389 43.6174 9.12789C43.5614 9.05322 43.4868 9.01589 43.3934 9.01589H34.9094C34.8161 9.01589 34.7321 9.05322 34.6574 9.12789C34.6014 9.18389 34.5734 9.25856 34.5734 9.35189V21.5879H30.9054ZM56.1695 21.5879C55.4602 21.5879 54.8069 21.4106 54.2095 21.0559C53.6309 20.7012 53.1642 20.2346 52.8095 19.6559C52.4735 19.0772 52.3055 18.4332 52.3055 17.7239V11.6199H65.1295V9.35189C65.1295 9.25856 65.0922 9.18389 65.0175 9.12789C64.9615 9.05322 64.8869 9.01589 64.7935 9.01589H52.3055V5.34789H64.9335C65.6429 5.34789 66.2869 5.52522 66.8655 5.87989C67.4629 6.23456 67.9295 6.70122 68.2655 7.27989C68.6202 7.85856 68.7975 8.50256 68.7975 9.21189V21.5879H56.1695ZM56.3095 17.9199H65.1295V14.9239H55.9735V17.5839C55.9735 17.6772 56.0015 17.7612 56.0575 17.8359C56.1322 17.8919 56.2162 17.9199 56.3095 17.9199ZM76.9694 21.5879C76.26 21.5879 75.616 21.4106 75.0374 21.0559C74.4587 20.7012 73.992 20.2346 73.6374 19.6559C73.2827 19.0772 73.1054 18.4332 73.1054 17.7239V-0.000110149H76.8014V17.5839C76.8014 17.6772 76.8294 17.7612 76.8854 17.8359C76.96 17.8919 77.044 17.9199 77.1374 17.9199H80.2454V21.5879H76.9694ZM98.4688 21.5879C97.7594 21.5879 97.1154 21.4106 96.5368 21.0559C95.9581 20.7012 95.4914 20.2346 95.1368 19.6559C94.7821 19.0772 94.6048 18.4332 94.6048 17.7239V17.1079H98.2728V17.5839C98.2728 17.6772 98.3008 17.7612 98.3568 17.8359C98.4314 17.8919 98.5154 17.9199 98.6088 17.9199H107.093C107.186 17.9199 107.261 17.8919 107.317 17.8359C107.391 17.7612 107.429 17.6772 107.429 17.5839V15.6519C107.429 15.5586 107.391 15.4839 107.317 15.4279C107.261 15.3532 107.186 15.3159 107.093 15.3159H98.4688C97.7594 15.3159 97.1154 15.1386 96.5368 14.7839C95.9581 14.4292 95.4914 13.9626 95.1368 13.3839C94.7821 12.8052 94.6048 12.1612 94.6048 11.4519V9.21189C94.6048 8.50256 94.7821 7.85856 95.1368 7.27989C95.4914 6.70122 95.9581 6.23456 96.5368 5.87989C97.1154 5.52522 97.7594 5.34789 98.4688 5.34789H107.233C107.961 5.34789 108.614 5.52522 109.193 5.87989C109.771 6.23456 110.238 6.70122 110.593 7.27989C110.947 7.85856 111.125 8.50256 111.125 9.21189V9.82789H107.429V9.35189C107.429 9.25856 107.391 9.18389 107.317 9.12789C107.261 9.05322 107.186 9.01589 107.093 9.01589H98.6088C98.5154 9.01589 98.4314 9.05322 98.3568 9.12789C98.3008 9.18389 98.2728 9.25856 98.2728 9.35189V11.2839C98.2728 11.3772 98.3008 11.4612 98.3568 11.5359C98.4314 11.5919 98.5154 11.6199 98.6088 11.6199H107.233C107.961 11.6199 108.614 11.7972 109.193 12.1519C109.771 12.5066 110.238 12.9732 110.593 13.5519C110.947 14.1306 111.125 14.7746 111.125 15.4839V17.7239C111.125 18.4332 110.947 19.0772 110.593 19.6559C110.238 20.2346 109.771 20.7012 109.193 21.0559C108.614 21.4106 107.961 21.5879 107.233 21.5879H98.4688ZM119.161 21.5879C118.452 21.5879 117.808 21.4106 117.229 21.0559C116.651 20.7012 116.184 20.2346 115.829 19.6559C115.475 19.0772 115.297 18.4332 115.297 17.7239V9.21189C115.297 8.50256 115.475 7.85856 115.829 7.27989C116.184 6.70122 116.651 6.23456 117.229 5.87989C117.808 5.52522 118.452 5.34789 119.161 5.34789H131.761V9.01589H119.301C119.208 9.01589 119.124 9.05322 119.049 9.12789C118.993 9.18389 118.965 9.25856 118.965 9.35189V17.5839C118.965 17.6772 118.993 17.7612 119.049 17.8359C119.124 17.8919 119.208 17.9199 119.301 17.9199H131.789V21.5879H119.161ZM140.399 21.5879C139.689 21.5879 139.045 21.4106 138.467 21.0559C137.888 20.7012 137.421 20.2346 137.067 19.6559C136.712 19.0772 136.535 18.4332 136.535 17.7239V9.21189C136.535 8.50256 136.712 7.85856 137.067 7.27989C137.421 6.70122 137.888 6.23456 138.467 5.87989C139.045 5.52522 139.689 5.34789 140.399 5.34789H149.163C149.872 5.34789 150.516 5.52522 151.095 5.87989C151.692 6.23456 152.159 6.70122 152.495 7.27989C152.849 7.85856 153.027 8.50256 153.027 9.21189V17.7239C153.027 18.4332 152.849 19.0772 152.495 19.6559C152.159 20.2346 151.701 20.7012 151.123 21.0559C150.544 21.4106 149.891 21.5879 149.163 21.5879H140.399ZM140.539 17.9199H149.023C149.116 17.9199 149.191 17.8919 149.247 17.8359C149.321 17.7612 149.359 17.6772 149.359 17.5839V9.35189C149.359 9.25856 149.321 9.18389 149.247 9.12789C149.191 9.05322 149.116 9.01589 149.023 9.01589H140.539C140.445 9.01589 140.361 9.05322 140.287 9.12789C140.231 9.18389 140.203 9.25856 140.203 9.35189V17.5839C140.203 17.6772 140.231 17.7612 140.287 17.8359C140.361 17.8919 140.445 17.9199 140.539 17.9199ZM157.308 21.5879V9.21189C157.308 8.50256 157.485 7.85856 157.84 7.27989C158.194 6.70122 158.661 6.23456 159.24 5.87989C159.837 5.52522 160.481 5.34789 161.172 5.34789H170.188V9.01589H161.312C161.218 9.01589 161.134 9.05322 161.06 9.12789C161.004 9.18389 160.976 9.25856 160.976 9.35189V21.5879H157.308ZM177.924 21.5879C177.215 21.5879 176.571 21.4106 175.992 21.0559C175.413 20.7012 174.947 20.2346 174.592 19.6559C174.237 19.0772 174.06 18.4332 174.06 17.7239V9.21189C174.06 8.50256 174.237 7.85856 174.592 7.27989C174.947 6.70122 175.413 6.23456 175.992 5.87989C176.571 5.52522 177.215 5.34789 177.924 5.34789H186.688C187.397 5.34789 188.041 5.52522 188.62 5.87989C189.217 6.23456 189.684 6.70122 190.02 7.27989C190.375 7.85856 190.552 8.50256 190.552 9.21189V15.3159H177.728V17.5839C177.728 17.6772 177.756 17.7612 177.812 17.8359C177.887 17.8919 177.971 17.9199 178.064 17.9199H190.552V21.5879H177.924ZM177.728 12.0119H186.884V9.35189C186.884 9.25856 186.847 9.18389 186.772 9.12789C186.716 9.05322 186.641 9.01589 186.548 9.01589H178.064C177.971 9.01589 177.887 9.05322 177.812 9.12789C177.756 9.18389 177.728 9.25856 177.728 9.35189V12.0119Z" fill="white"/>
</svg>
