<svg width="466" height="72" viewBox="0 0 466 72" fill="none" xmlns="http://www.w3.org/2000/svg">
<g filter="url(#filter0_d_2123_1536)">
<path d="M-0.000366926 49.3442V3.26424H35.3276C36.949 3.26424 38.421 3.66957 39.7436 4.48024C41.109 5.2909 42.197 6.3789 43.0076 7.74424C43.8183 9.0669 44.2236 10.5389 44.2236 12.1602V21.1842C44.2236 21.7389 44.181 22.2722 44.0956 22.7842C44.0103 23.2962 43.861 23.7869 43.6476 24.2562C44.373 25.2376 44.949 26.2616 45.3756 27.3282C45.845 28.3949 46.0796 29.4616 46.0796 30.5282V40.4482C46.0796 42.0696 45.6743 43.5629 44.8636 44.9282C44.053 46.2509 42.965 47.3176 41.5996 48.1282C40.2343 48.9389 38.741 49.3442 37.1196 49.3442H-0.000366926ZM9.21563 40.8322H36.7356C36.949 40.8322 37.141 40.7682 37.3116 40.6402C37.4823 40.4696 37.5676 40.2776 37.5676 40.0642V30.9122C37.5676 30.6989 37.4823 30.5282 37.3116 30.4002C37.141 30.2296 36.949 30.1442 36.7356 30.1442H9.21563C9.0023 30.1442 8.8103 30.2296 8.63963 30.4002C8.51163 30.5282 8.44763 30.6989 8.44763 30.9122V40.0642C8.44763 40.2776 8.51163 40.4696 8.63963 40.6402C8.8103 40.7682 9.0023 40.8322 9.21563 40.8322ZM9.21563 21.6322H34.9436C35.157 21.6322 35.3276 21.5682 35.4556 21.4402C35.5836 21.2696 35.6476 21.0776 35.6476 20.8642V12.5442C35.6476 12.3309 35.5836 12.1602 35.4556 12.0322C35.3276 11.8616 35.157 11.7762 34.9436 11.7762H9.21563C9.0023 11.7762 8.8103 11.8616 8.63963 12.0322C8.51163 12.1602 8.44763 12.3309 8.44763 12.5442V20.8642C8.44763 21.0776 8.51163 21.2696 8.63963 21.4402C8.8103 21.5682 9.0023 21.6322 9.21563 21.6322ZM66.1136 49.3442C64.4923 49.3442 63.0203 48.9389 61.6976 48.1282C60.375 47.3176 59.3083 46.2509 58.4976 44.9282C57.687 43.6056 57.2816 42.1336 57.2816 40.5122V0.000236511H65.7296V40.1922C65.7296 40.4056 65.7936 40.5976 65.9216 40.7682C66.0923 40.8962 66.2843 40.9602 66.4976 40.9602H73.6016V49.3442H66.1136ZM92.0326 49.3442C90.4113 49.3442 88.918 48.9389 87.5526 48.1282C86.23 47.3176 85.1633 46.2509 84.3526 44.9282C83.5846 43.6056 83.2006 42.1336 83.2006 40.5122V12.2242H91.5846V40.1922C91.5846 40.4056 91.6486 40.5976 91.7766 40.7682C91.9473 40.8962 92.1393 40.9602 92.3526 40.9602H111.745C111.958 40.9602 112.129 40.8962 112.257 40.7682C112.427 40.5976 112.513 40.4056 112.513 40.1922V12.2242H120.897V40.5122C120.897 42.1336 120.491 43.6056 119.681 44.9282C118.913 46.2509 117.867 47.3176 116.545 48.1282C115.222 48.9389 113.729 49.3442 112.065 49.3442H92.0326ZM139.51 49.3442C137.888 49.3442 136.416 48.9389 135.094 48.1282C133.771 47.3176 132.704 46.2509 131.894 44.9282C131.083 43.6056 130.678 42.1336 130.678 40.5122V21.0562C130.678 19.4349 131.083 17.9629 131.894 16.6402C132.704 15.3176 133.771 14.2509 135.094 13.4402C136.416 12.6296 137.888 12.2242 139.51 12.2242H159.542C161.163 12.2242 162.635 12.6296 163.958 13.4402C165.323 14.2509 166.39 15.3176 167.158 16.6402C167.968 17.9629 168.374 19.4349 168.374 21.0562V35.0082H139.062V40.1922C139.062 40.4056 139.126 40.5976 139.254 40.7682C139.424 40.8962 139.616 40.9602 139.83 40.9602H168.374V49.3442H139.51ZM139.062 27.4562H159.99V21.3762C159.99 21.1629 159.904 20.9922 159.734 20.8642C159.606 20.6936 159.435 20.6082 159.222 20.6082H139.83C139.616 20.6082 139.424 20.6936 139.254 20.8642C139.126 20.9922 139.062 21.1629 139.062 21.3762V27.4562ZM203.833 49.3442V3.32824H240.953C242.574 3.32824 244.067 3.73357 245.433 4.54424C246.798 5.3549 247.886 6.4429 248.697 7.80824C249.507 9.1309 249.913 10.6029 249.913 12.2242V24.6402C249.913 26.2616 249.507 27.7549 248.697 29.1202C247.886 30.4856 246.798 31.5736 245.433 32.3842C244.067 33.1522 242.574 33.5362 240.953 33.5362L212.281 33.6002V49.3442H203.833ZM213.049 25.0242H240.569C240.782 25.0242 240.974 24.9602 241.145 24.8322C241.315 24.7042 241.401 24.5336 241.401 24.3202V12.5442C241.401 12.3309 241.315 12.1602 241.145 12.0322C240.974 11.8616 240.782 11.7762 240.569 11.7762H213.049C212.835 11.7762 212.643 11.8616 212.473 12.0322C212.345 12.1602 212.281 12.3309 212.281 12.5442V24.3202C212.281 24.5336 212.345 24.7042 212.473 24.8322C212.643 24.9602 212.835 25.0242 213.049 25.0242ZM267.514 49.3442C265.892 49.3442 264.42 48.9389 263.098 48.1282C261.775 47.3176 260.708 46.2509 259.898 44.9282C259.087 43.6056 258.682 42.1336 258.682 40.5122V0.000236511H267.13V40.1922C267.13 40.4056 267.194 40.5976 267.322 40.7682C267.492 40.8962 267.684 40.9602 267.898 40.9602H275.002V49.3442H267.514ZM293.181 49.3442C291.56 49.3442 290.066 48.9389 288.701 48.1282C287.378 47.3176 286.312 46.2509 285.501 44.9282C284.733 43.6056 284.349 42.1336 284.349 40.5122V26.5602H313.661V21.3762C313.661 21.1629 313.576 20.9922 313.405 20.8642C313.277 20.6936 313.106 20.6082 312.893 20.6082H284.349V12.2242H313.213C314.834 12.2242 316.306 12.6296 317.629 13.4402C318.994 14.2509 320.061 15.3176 320.829 16.6402C321.64 17.9629 322.045 19.4349 322.045 21.0562V49.3442H293.181ZM293.501 40.9602H313.661V34.1122H292.733V40.1922C292.733 40.4056 292.797 40.5976 292.925 40.7682C293.096 40.8962 293.288 40.9602 293.501 40.9602ZM338.835 63.1042V54.6562H361.171C361.384 54.6562 361.555 54.5709 361.683 54.4002C361.853 54.2722 361.939 54.1016 361.939 53.8882V49.3442H341.459C339.88 49.3442 338.408 48.9389 337.043 48.1282C335.72 47.3176 334.653 46.2509 333.843 44.9282C333.032 43.6056 332.627 42.1336 332.627 40.5122V12.3522H341.011V40.1922C341.011 40.4056 341.075 40.5976 341.203 40.7682C341.373 40.8962 341.565 40.9602 341.779 40.9602H361.171C361.384 40.9602 361.555 40.8962 361.683 40.7682C361.853 40.5976 361.939 40.4056 361.939 40.1922V12.3522H370.323V54.2722C370.323 55.8936 369.939 57.3656 369.171 58.6882C368.403 60.0536 367.336 61.1202 365.971 61.8882C364.648 62.6989 363.176 63.1042 361.555 63.1042H338.835ZM388.827 49.3442C387.206 49.3442 385.734 48.9389 384.411 48.1282C383.088 47.3176 382.022 46.2509 381.211 44.9282C380.4 43.6056 379.995 42.1336 379.995 40.5122V21.0562C379.995 19.4349 380.4 17.9629 381.211 16.6402C382.022 15.3176 383.088 14.2509 384.411 13.4402C385.734 12.6296 387.206 12.2242 388.827 12.2242H408.859C410.48 12.2242 411.952 12.6296 413.275 13.4402C414.64 14.2509 415.707 15.3176 416.475 16.6402C417.286 17.9629 417.691 19.4349 417.691 21.0562V35.0082H388.379V40.1922C388.379 40.4056 388.443 40.5976 388.571 40.7682C388.742 40.8962 388.934 40.9602 389.147 40.9602H417.691V49.3442H388.827ZM388.379 27.4562H409.307V21.3762C409.307 21.1629 409.222 20.9922 409.051 20.8642C408.923 20.6936 408.752 20.6082 408.539 20.6082H389.147C388.934 20.6082 388.742 20.6936 388.571 20.8642C388.443 20.9922 388.379 21.1629 388.379 21.3762V27.4562ZM428.477 49.3442V21.0562C428.477 19.4349 428.882 17.9629 429.693 16.6402C430.503 15.3176 431.57 14.2509 432.893 13.4402C434.258 12.6296 435.73 12.2242 437.309 12.2242H457.917V20.6082H437.629C437.415 20.6082 437.223 20.6936 437.053 20.8642C436.925 20.9922 436.861 21.1629 436.861 21.3762V49.3442H428.477Z" fill="#2298DB"/>
</g>
<defs>
<filter id="filter0_d_2123_1536" x="0" y="0" width="465.917" height="71.104" filterUnits="userSpaceOnUse" color-interpolation-filters="sRGB">
<feFlood flood-opacity="0" result="BackgroundImageFix"/>
<feColorMatrix in="SourceAlpha" type="matrix" values="0 0 0 0 0 0 0 0 0 0 0 0 0 0 0 0 0 0 127 0" result="hardAlpha"/>
<feOffset dx="4" dy="4"/>
<feGaussianBlur stdDeviation="2"/>
<feComposite in2="hardAlpha" operator="out"/>
<feColorMatrix type="matrix" values="0 0 0 0 0 0 0 0 0 0 0 0 0 0 0 0 0 0 0.25 0"/>
<feBlend mode="normal" in2="BackgroundImageFix" result="effect1_dropShadow_2123_1536"/>
<feBlend mode="normal" in="SourceGraphic" in2="effect1_dropShadow_2123_1536" result="shape"/>
</filter>
</defs>
</svg>
