<svg width="79" height="22" viewBox="0 0 79 22" fill="none" xmlns="http://www.w3.org/2000/svg">
<path d="M9.67681e-05 21.2241V1.06412H3.6681V21.2241H9.67681e-05ZM12.1204 21.2241C11.4111 21.2241 10.7671 21.0468 10.1884 20.6921C9.60972 20.3375 9.14305 19.8708 8.78838 19.2921C8.43372 18.7135 8.25638 18.0695 8.25638 17.3601V0.00012064H11.9244V4.98412H18.2524V8.65212H11.9244V17.2201C11.9244 17.3135 11.9524 17.3975 12.0084 17.4721C12.0831 17.5281 12.1671 17.5561 12.2604 17.5561H18.2524V21.2241H12.1204ZM22.5217 8.45612V1.31612H26.1897V4.59212C26.1897 5.20812 26.0311 5.78679 25.7137 6.32812C25.3964 6.86945 24.9577 7.32679 24.3977 7.70012C23.8377 8.07345 23.2124 8.32545 22.5217 8.45612ZM34.2207 21.2241C33.5114 21.2241 32.8674 21.0468 32.2887 20.6921C31.71 20.3375 31.2434 19.8708 30.8887 19.2921C30.534 18.7135 30.3567 18.0695 30.3567 17.3601V16.7441H34.0247V17.2201C34.0247 17.3135 34.0527 17.3975 34.1087 17.4721C34.1834 17.5281 34.2674 17.5561 34.3607 17.5561H42.8447C42.938 17.5561 43.0127 17.5281 43.0687 17.4721C43.1434 17.3975 43.1807 17.3135 43.1807 17.2201V15.2881C43.1807 15.1948 43.1434 15.1201 43.0687 15.0641C43.0127 14.9895 42.938 14.9521 42.8447 14.9521H34.2207C33.5114 14.9521 32.8674 14.7748 32.2887 14.4201C31.71 14.0655 31.2434 13.5988 30.8887 13.0201C30.534 12.4415 30.3567 11.7975 30.3567 11.0881V8.84812C30.3567 8.13879 30.534 7.49479 30.8887 6.91612C31.2434 6.33745 31.71 5.87079 32.2887 5.51612C32.8674 5.16145 33.5114 4.98412 34.2207 4.98412H42.9847C43.7127 4.98412 44.366 5.16145 44.9447 5.51612C45.5234 5.87079 45.99 6.33745 46.3447 6.91612C46.6994 7.49479 46.8767 8.13879 46.8767 8.84812V9.46412H43.1807V8.98812C43.1807 8.89479 43.1434 8.82012 43.0687 8.76412C43.0127 8.68945 42.938 8.65212 42.8447 8.65212H34.3607C34.2674 8.65212 34.1834 8.68945 34.1087 8.76412C34.0527 8.82012 34.0247 8.89479 34.0247 8.98812V10.9201C34.0247 11.0135 34.0527 11.0975 34.1087 11.1721C34.1834 11.2281 34.2674 11.2561 34.3607 11.2561H42.9847C43.7127 11.2561 44.366 11.4335 44.9447 11.7881C45.5234 12.1428 45.99 12.6095 46.3447 13.1881C46.6994 13.7668 46.8767 14.4108 46.8767 15.1201V17.3601C46.8767 18.0695 46.6994 18.7135 46.3447 19.2921C45.99 19.8708 45.5234 20.3375 44.9447 20.6921C44.366 21.0468 43.7127 21.2241 42.9847 21.2241H34.2207ZM66.0066 21.2241C65.2973 21.2241 64.6439 21.0468 64.0466 20.6921C63.4679 20.3375 63.0013 19.8708 62.6466 19.2921C62.3106 18.7135 62.1426 18.0695 62.1426 17.3601V11.2561H74.9666V8.98812C74.9666 8.89479 74.9293 8.82012 74.8546 8.76412C74.7986 8.68945 74.7239 8.65212 74.6306 8.65212H62.1426V4.98412H74.7706C75.4799 4.98412 76.1239 5.16145 76.7026 5.51612C77.2999 5.87079 77.7666 6.33745 78.1026 6.91612C78.4573 7.49479 78.6346 8.13879 78.6346 8.84812V21.2241H66.0066ZM66.1466 17.5561H74.9666V14.5601H65.8106V17.2201C65.8106 17.3135 65.8386 17.3975 65.8946 17.4721C65.9693 17.5281 66.0533 17.5561 66.1466 17.5561Z" fill="white"/>
</svg>
