<svg width="575" height="72" viewBox="0 0 575 72" fill="none" xmlns="http://www.w3.org/2000/svg">
<g filter="url(#filter0_d_2258_3977)">
<path d="M8.89595 49.3442C7.27461 49.3442 5.78128 48.9389 4.41595 48.1282C3.09328 47.3176 2.02661 46.2509 1.21595 44.9282C0.405279 43.5629 -5.45979e-05 42.0696 -5.45979e-05 40.4482V12.1602C-5.45979e-05 10.5389 0.405279 9.0669 1.21595 7.74424C2.02661 6.3789 3.09328 5.2909 4.41595 4.48024C5.78128 3.66957 7.27461 3.26424 8.89595 3.26424H37.1839C38.8053 3.26424 40.2773 3.66957 41.5999 4.48024C42.9653 5.2909 44.0533 6.3789 44.8639 7.74424C45.6746 9.0669 46.0799 10.5389 46.0799 12.1602V40.4482C46.0799 42.0696 45.6746 43.5629 44.8639 44.9282C44.0533 46.2509 42.9653 47.3176 41.5999 48.1282C40.2773 48.9389 38.8053 49.3442 37.1839 49.3442H8.89595ZM9.21595 40.8322H36.7359C36.9493 40.8322 37.1413 40.7682 37.3119 40.6402C37.4826 40.4696 37.5679 40.2776 37.5679 40.0642V12.5442C37.5679 12.3309 37.4826 12.1602 37.3119 12.0322C37.1413 11.8616 36.9493 11.7762 36.7359 11.7762H9.21595C9.00261 11.7762 8.81061 11.8616 8.63995 12.0322C8.51195 12.1602 8.44795 12.3309 8.44795 12.5442V40.0642C8.44795 40.2776 8.51195 40.4696 8.63995 40.6402C8.81061 40.7682 9.00261 40.8322 9.21595 40.8322ZM57.3519 49.3442V21.0562C57.3519 19.4349 57.7573 17.9629 58.5679 16.6402C59.3786 15.3176 60.4453 14.2509 61.7679 13.4402C63.1333 12.6296 64.6053 12.2242 66.1839 12.2242H86.7919V20.6082H66.5039C66.2906 20.6082 66.0986 20.6936 65.9279 20.8642C65.7999 20.9922 65.7359 21.1629 65.7359 21.3762V49.3442H57.3519ZM104.976 49.3442C103.355 49.3442 101.862 48.9389 100.496 48.1282C99.1738 47.3176 98.1071 46.2509 97.2964 44.9282C96.5284 43.6056 96.1444 42.1336 96.1444 40.5122V26.5602H125.456V21.3762C125.456 21.1629 125.371 20.9922 125.2 20.8642C125.072 20.6936 124.902 20.6082 124.688 20.6082H96.1444V12.2242H125.008C126.63 12.2242 128.102 12.6296 129.424 13.4402C130.79 14.2509 131.856 15.3176 132.624 16.6402C133.435 17.9629 133.84 19.4349 133.84 21.0562V49.3442H104.976ZM105.296 40.9602H125.456V34.1122H104.528V40.1922C104.528 40.4056 104.592 40.5976 104.72 40.7682C104.891 40.8962 105.083 40.9602 105.296 40.9602ZM144.502 49.3442V12.2242H173.366C174.988 12.2242 176.46 12.6296 177.782 13.4402C179.148 14.2509 180.214 15.3176 180.982 16.6402C181.793 17.9629 182.198 19.4349 182.198 21.0562V49.3442H173.814V21.3762C173.814 21.1629 173.729 20.9922 173.558 20.8642C173.43 20.6936 173.26 20.6082 173.046 20.6082H153.654C153.441 20.6082 153.249 20.6936 153.078 20.8642C152.95 20.9922 152.886 21.1629 152.886 21.3762V49.3442H144.502ZM198.483 64.0002V55.5522H220.819C221.033 55.5522 221.203 55.4669 221.331 55.2962C221.502 55.1682 221.587 54.9976 221.587 54.7842V49.3442H201.107C199.529 49.3442 198.057 48.9389 196.691 48.1282C195.369 47.3176 194.302 46.2509 193.491 44.9282C192.681 43.6056 192.275 42.1336 192.275 40.5122V21.0562C192.275 19.4349 192.681 17.9629 193.491 16.6402C194.302 15.3176 195.369 14.2509 196.691 13.4402C198.057 12.6296 199.529 12.2242 201.107 12.2242H221.203C222.825 12.2242 224.297 12.6296 225.619 13.4402C226.942 14.2509 227.987 15.3176 228.755 16.6402C229.566 17.9629 229.971 19.4349 229.971 21.0562V55.1682C229.971 56.8322 229.587 58.3256 228.819 59.6482C228.051 60.9709 226.985 62.0162 225.619 62.7842C224.297 63.5949 222.825 64.0002 221.203 64.0002H198.483ZM201.427 40.9602H220.819C221.033 40.9602 221.203 40.8962 221.331 40.7682C221.502 40.5976 221.587 40.4056 221.587 40.1922V21.3762C221.587 21.1629 221.502 20.9922 221.331 20.8642C221.203 20.6936 221.033 20.6082 220.819 20.6082H201.427C201.214 20.6082 201.022 20.6936 200.851 20.8642C200.723 20.9922 200.659 21.1629 200.659 21.3762V40.1922C200.659 40.4056 200.723 40.5976 200.851 40.7682C201.022 40.8962 201.214 40.9602 201.427 40.9602ZM248.602 49.3442C246.981 49.3442 245.509 48.9389 244.186 48.1282C242.864 47.3176 241.797 46.2509 240.986 44.9282C240.176 43.6056 239.77 42.1336 239.77 40.5122V21.0562C239.77 19.4349 240.176 17.9629 240.986 16.6402C241.797 15.3176 242.864 14.2509 244.186 13.4402C245.509 12.6296 246.981 12.2242 248.602 12.2242H268.634C270.256 12.2242 271.728 12.6296 273.05 13.4402C274.416 14.2509 275.482 15.3176 276.25 16.6402C277.061 17.9629 277.466 19.4349 277.466 21.0562V35.0082H248.154V40.1922C248.154 40.4056 248.218 40.5976 248.346 40.7682C248.517 40.8962 248.709 40.9602 248.922 40.9602H277.466V49.3442H248.602ZM248.154 27.4562H269.082V21.3762C269.082 21.1629 268.997 20.9922 268.826 20.8642C268.698 20.6936 268.528 20.6082 268.314 20.6082H248.922C248.709 20.6082 248.517 20.6936 248.346 20.8642C248.218 20.9922 248.154 21.1629 248.154 21.3762V27.4562ZM312.925 49.3442V3.32824H350.045C351.667 3.32824 353.16 3.73357 354.525 4.54424C355.891 5.3549 356.979 6.4429 357.789 7.80824C358.6 9.1309 359.005 10.6029 359.005 12.2242V24.6402C359.005 26.2616 358.6 27.7549 357.789 29.1202C356.979 30.4856 355.891 31.5736 354.525 32.3842C353.16 33.1522 351.667 33.5362 350.045 33.5362L321.373 33.6002V49.3442H312.925ZM322.141 25.0242H349.661C349.875 25.0242 350.067 24.9602 350.237 24.8322C350.408 24.7042 350.493 24.5336 350.493 24.3202V12.5442C350.493 12.3309 350.408 12.1602 350.237 12.0322C350.067 11.8616 349.875 11.7762 349.661 11.7762H322.141C321.928 11.7762 321.736 11.8616 321.565 12.0322C321.437 12.1602 321.373 12.3309 321.373 12.5442V24.3202C321.373 24.5336 321.437 24.7042 321.565 24.8322C321.736 24.9602 321.928 25.0242 322.141 25.0242ZM376.606 49.3442C374.985 49.3442 373.513 48.9389 372.19 48.1282C370.868 47.3176 369.801 46.2509 368.99 44.9282C368.18 43.6056 367.774 42.1336 367.774 40.5122V0.000236511H376.222V40.1922C376.222 40.4056 376.286 40.5976 376.414 40.7682C376.585 40.8962 376.777 40.9602 376.99 40.9602H384.094V49.3442H376.606ZM402.274 49.3442C400.653 49.3442 399.159 48.9389 397.794 48.1282C396.471 47.3176 395.405 46.2509 394.594 44.9282C393.826 43.6056 393.442 42.1336 393.442 40.5122V26.5602H422.754V21.3762C422.754 21.1629 422.669 20.9922 422.498 20.8642C422.37 20.6936 422.199 20.6082 421.986 20.6082H393.442V12.2242H422.306C423.927 12.2242 425.399 12.6296 426.722 13.4402C428.087 14.2509 429.154 15.3176 429.922 16.6402C430.733 17.9629 431.138 19.4349 431.138 21.0562V49.3442H402.274ZM402.594 40.9602H422.754V34.1122H401.826V40.1922C401.826 40.4056 401.89 40.5976 402.018 40.7682C402.189 40.8962 402.381 40.9602 402.594 40.9602ZM447.927 63.1042V54.6562H470.263C470.477 54.6562 470.647 54.5709 470.775 54.4002C470.946 54.2722 471.031 54.1016 471.031 53.8882V49.3442H450.551C448.973 49.3442 447.501 48.9389 446.135 48.1282C444.813 47.3176 443.746 46.2509 442.935 44.9282C442.125 43.6056 441.719 42.1336 441.719 40.5122V12.3522H450.103V40.1922C450.103 40.4056 450.167 40.5976 450.295 40.7682C450.466 40.8962 450.658 40.9602 450.871 40.9602H470.263C470.477 40.9602 470.647 40.8962 470.775 40.7682C470.946 40.5976 471.031 40.4056 471.031 40.1922V12.3522H479.415V54.2722C479.415 55.8936 479.031 57.3656 478.263 58.6882C477.495 60.0536 476.429 61.1202 475.063 61.8882C473.741 62.6989 472.269 63.1042 470.647 63.1042H447.927ZM497.92 49.3442C496.299 49.3442 494.827 48.9389 493.504 48.1282C492.181 47.3176 491.115 46.2509 490.304 44.9282C489.493 43.6056 489.088 42.1336 489.088 40.5122V21.0562C489.088 19.4349 489.493 17.9629 490.304 16.6402C491.115 15.3176 492.181 14.2509 493.504 13.4402C494.827 12.6296 496.299 12.2242 497.92 12.2242H517.952C519.573 12.2242 521.045 12.6296 522.368 13.4402C523.733 14.2509 524.8 15.3176 525.568 16.6402C526.379 17.9629 526.784 19.4349 526.784 21.0562V35.0082H497.472V40.1922C497.472 40.4056 497.536 40.5976 497.664 40.7682C497.835 40.8962 498.027 40.9602 498.24 40.9602H526.784V49.3442H497.92ZM497.472 27.4562H518.4V21.3762C518.4 21.1629 518.315 20.9922 518.144 20.8642C518.016 20.6936 517.845 20.6082 517.632 20.6082H498.24C498.027 20.6082 497.835 20.6936 497.664 20.8642C497.536 20.9922 497.472 21.1629 497.472 21.3762V27.4562ZM537.569 49.3442V21.0562C537.569 19.4349 537.975 17.9629 538.785 16.6402C539.596 15.3176 540.663 14.2509 541.985 13.4402C543.351 12.6296 544.823 12.2242 546.401 12.2242H567.009V20.6082H546.721C546.508 20.6082 546.316 20.6936 546.145 20.8642C546.017 20.9922 545.953 21.1629 545.953 21.3762V49.3442H537.569Z" fill="#EA6900"/>
</g>
<defs>
<filter id="filter0_d_2258_3977" x="0" y="0" width="575.01" height="72" filterUnits="userSpaceOnUse" color-interpolation-filters="sRGB">
<feFlood flood-opacity="0" result="BackgroundImageFix"/>
<feColorMatrix in="SourceAlpha" type="matrix" values="0 0 0 0 0 0 0 0 0 0 0 0 0 0 0 0 0 0 127 0" result="hardAlpha"/>
<feOffset dx="4" dy="4"/>
<feGaussianBlur stdDeviation="2"/>
<feComposite in2="hardAlpha" operator="out"/>
<feColorMatrix type="matrix" values="0 0 0 0 0 0 0 0 0 0 0 0 0 0 0 0 0 0 0.25 0"/>
<feBlend mode="normal" in2="BackgroundImageFix" result="effect1_dropShadow_2258_3977"/>
<feBlend mode="normal" in="SourceGraphic" in2="effect1_dropShadow_2258_3977" result="shape"/>
</filter>
</defs>
</svg>
