<svg width="233" height="22" viewBox="0 0 233 22" fill="none" xmlns="http://www.w3.org/2000/svg">
<path d="M8.23219 21.5601V5.12406H0.000193216V1.40006H20.1602V5.12406H11.9562V21.5601H8.23219ZM24.1583 21.5601V5.74589e-05H27.8263V5.32006H36.7863C37.4956 5.32006 38.1396 5.49739 38.7183 5.85206C39.297 6.20672 39.7636 6.67339 40.1183 7.25206C40.473 7.83072 40.6503 8.47472 40.6503 9.18406V21.5601H36.9823V9.32406C36.9823 9.23072 36.945 9.15606 36.8703 9.10006C36.8143 9.02539 36.7396 8.98806 36.6463 8.98806H28.1623C28.069 8.98806 27.985 9.02539 27.9103 9.10006C27.8543 9.15606 27.8263 9.23072 27.8263 9.32406V21.5601H24.1583ZM48.5741 21.5601C47.8647 21.5601 47.2207 21.3827 46.6421 21.0281C46.0634 20.6734 45.5967 20.2067 45.2421 19.6281C44.8874 19.0494 44.7101 18.4054 44.7101 17.6961V9.18406C44.7101 8.47472 44.8874 7.83072 45.2421 7.25206C45.5967 6.67339 46.0634 6.20672 46.6421 5.85206C47.2207 5.49739 47.8647 5.32006 48.5741 5.32006H57.3381C58.0474 5.32006 58.6914 5.49739 59.2701 5.85206C59.8674 6.20672 60.3341 6.67339 60.6701 7.25206C61.0247 7.83072 61.2021 8.47472 61.2021 9.18406V15.2881H48.3781V17.5561C48.3781 17.6494 48.4061 17.7334 48.4621 17.8081C48.5367 17.8641 48.6207 17.8921 48.7141 17.8921H61.2021V21.5601H48.5741ZM48.3781 11.9841H57.5341V9.32406C57.5341 9.23072 57.4967 9.15606 57.4221 9.10006C57.3661 9.02539 57.2914 8.98806 57.1981 8.98806H48.7141C48.6207 8.98806 48.5367 9.02539 48.4621 9.10006C48.4061 9.15606 48.3781 9.23072 48.3781 9.32406V11.9841ZM82.5114 21.5601L76.1274 5.32006H80.0194L83.9674 14.8961L88.1114 5.32006H91.9194L96.3434 14.9521L100.011 5.32006H103.903L97.7994 21.5601H94.9434L90.0434 10.7241L85.3674 21.5601H82.5114ZM107.821 21.5601V5.32006H111.489V21.5601H107.821ZM107.821 3.69606V5.74589e-05H111.489V3.69606H107.821ZM116.7 21.5601V5.32006H129.328C130.038 5.32006 130.682 5.49739 131.26 5.85206C131.858 6.20672 132.324 6.67339 132.66 7.25206C133.015 7.83072 133.192 8.47472 133.192 9.18406V21.5601H129.524V9.32406C129.524 9.23072 129.487 9.15606 129.412 9.10006C129.356 9.02539 129.282 8.98806 129.188 8.98806H120.704C120.611 8.98806 120.527 9.02539 120.452 9.10006C120.396 9.15606 120.368 9.23072 120.368 9.32406V21.5601H116.7ZM138.157 21.5601V5.32006H150.785C151.494 5.32006 152.138 5.49739 152.717 5.85206C153.314 6.20672 153.781 6.67339 154.117 7.25206C154.471 7.83072 154.649 8.47472 154.649 9.18406V21.5601H150.981V9.32406C150.981 9.23072 150.943 9.15606 150.869 9.10006C150.813 9.02539 150.738 8.98806 150.645 8.98806H142.161C142.067 8.98806 141.983 9.02539 141.909 9.10006C141.853 9.15606 141.825 9.23072 141.825 9.32406V21.5601H138.157ZM162.818 21.5601C162.109 21.5601 161.465 21.3827 160.886 21.0281C160.308 20.6734 159.841 20.2067 159.486 19.6281C159.132 19.0494 158.954 18.4054 158.954 17.6961V9.18406C158.954 8.47472 159.132 7.83072 159.486 7.25206C159.841 6.67339 160.308 6.20672 160.886 5.85206C161.465 5.49739 162.109 5.32006 162.818 5.32006H171.582C172.292 5.32006 172.936 5.49739 173.514 5.85206C174.112 6.20672 174.578 6.67339 174.914 7.25206C175.269 7.83072 175.446 8.47472 175.446 9.18406V15.2881H162.622V17.5561C162.622 17.6494 162.65 17.7334 162.706 17.8081C162.781 17.8641 162.865 17.8921 162.958 17.8921H175.446V21.5601H162.818ZM162.622 11.9841H171.778V9.32406C171.778 9.23072 171.741 9.15606 171.666 9.10006C171.61 9.02539 171.536 8.98806 171.442 8.98806H162.958C162.865 8.98806 162.781 9.02539 162.706 9.10006C162.65 9.15606 162.622 9.23072 162.622 9.32406V11.9841ZM180.165 21.5601V9.18406C180.165 8.47472 180.342 7.83072 180.697 7.25206C181.052 6.67339 181.518 6.20672 182.097 5.85206C182.694 5.49739 183.338 5.32006 184.029 5.32006H193.045V8.98806H184.169C184.076 8.98806 183.992 9.02539 183.917 9.10006C183.861 9.15606 183.833 9.23072 183.833 9.32406V21.5601H180.165ZM207.273 21.5601V5.32006H210.941V21.5601H207.273ZM207.273 3.69606V5.74589e-05H210.941V3.69606H207.273ZM219.957 21.5601C219.248 21.5601 218.604 21.3827 218.025 21.0281C217.447 20.6734 216.98 20.2067 216.625 19.6281C216.271 19.0494 216.093 18.4054 216.093 17.6961V17.0801H219.761V17.5561C219.761 17.6494 219.789 17.7334 219.845 17.8081C219.92 17.8641 220.004 17.8921 220.097 17.8921H228.581C228.675 17.8921 228.749 17.8641 228.805 17.8081C228.88 17.7334 228.917 17.6494 228.917 17.5561V15.6241C228.917 15.5307 228.88 15.4561 228.805 15.4001C228.749 15.3254 228.675 15.2881 228.581 15.2881H219.957C219.248 15.2881 218.604 15.1107 218.025 14.7561C217.447 14.4014 216.98 13.9347 216.625 13.3561C216.271 12.7774 216.093 12.1334 216.093 11.4241V9.18406C216.093 8.47472 216.271 7.83072 216.625 7.25206C216.98 6.67339 217.447 6.20672 218.025 5.85206C218.604 5.49739 219.248 5.32006 219.957 5.32006H228.721C229.449 5.32006 230.103 5.49739 230.681 5.85206C231.26 6.20672 231.727 6.67339 232.081 7.25206C232.436 7.83072 232.613 8.47472 232.613 9.18406V9.80006H228.917V9.32406C228.917 9.23072 228.88 9.15606 228.805 9.10006C228.749 9.02539 228.675 8.98806 228.581 8.98806H220.097C220.004 8.98806 219.92 9.02539 219.845 9.10006C219.789 9.15606 219.761 9.23072 219.761 9.32406V11.2561C219.761 11.3494 219.789 11.4334 219.845 11.5081C219.92 11.5641 220.004 11.5921 220.097 11.5921H228.721C229.449 11.5921 230.103 11.7694 230.681 12.1241C231.26 12.4787 231.727 12.9454 232.081 13.5241C232.436 14.1027 232.613 14.7467 232.613 15.4561V17.6961C232.613 18.4054 232.436 19.0494 232.081 19.6281C231.727 20.2067 231.26 20.6734 230.681 21.0281C230.103 21.3827 229.449 21.5601 228.721 21.5601H219.957Z" fill="white"/>
</svg>
